<?xml version="1.0" encoding="UTF-8"?>
<svg width="40px" height="40px" viewBox="0 0 40 40" version="1.1" xmlns="http://www.w3.org/2000/svg" xmlns:xlink="http://www.w3.org/1999/xlink">
    <!-- Generator: Sketch 53 (72520) - https://sketchapp.com -->
    <title>auto debet</title>
    <desc>Created with Sketch.</desc>
    <defs>
        <linearGradient x1="0%" y1="0%" x2="100%" y2="100%" id="linearGradient-1">
            <stop stop-color="#81FBB8" offset="0%"></stop>
            <stop stop-color="#28C76F" offset="100%"></stop>
        </linearGradient>
    </defs>
    <g id="Page-1" stroke="none" stroke-width="1" fill="none" fill-rule="evenodd">
        <g id="Desktop" transform="translate(-448.000000, -696.000000)">
            <g id="auto-debet" transform="translate(448.000000, 696.000000)">
                <rect id="Rectangle-Copy-4" fill="url(#linearGradient-1)" x="0" y="0" width="40" height="40" rx="5"></rect>
                <g id="payment-method" transform="translate(14.000000, 11.000000)" fill="#FFFFFF" fill-rule="nonzero">
                    <path d="M11.8556452,8.41991701 C11.6703755,8.27406639 10.0344834,6.47261411 9.10813485,5.63298755 C9.10419295,5.62904564 9.10419295,5.62904564 9.10419295,5.62510373 L9.10419295,1.74626556 C9.10419295,0.784439834 8.31975311,0 7.35792739,0 L1.63821784,0 C0.743404564,0 0.0141514523,0.733195021 0.0141514523,1.62406639 L0.0141514523,10.7219917 C0.0141514523,11.6838174 0.798591286,12.4682573 1.76041701,12.4682573 L3.42390249,12.4682573 L3.84568672,12.4682573 C3.91664108,12.4682573 3.97576971,12.4051867 3.96788589,12.3342324 L3.87722199,11.5616183 C3.86933817,11.4985477 3.81809336,11.4551867 3.75502282,11.4551867 L3.60128838,11.4551867 L3.50668257,11.4551867 C3.43967012,11.4551867 3.3844834,11.4 3.3844834,11.3329876 L3.3844834,0.997302905 C3.3844834,0.930290456 3.43967012,0.875103734 3.50668257,0.875103734 L7.36975311,0.875103734 C7.76000207,0.875103734 8.07929668,1.19439834 8.07929668,1.5846473 L8.07929668,10.0282158 L8.07929668,10.8599585 C8.07929668,11.1280083 7.89402697,11.356639 7.64568672,11.4275934 C7.64174481,11.4275934 7.64174481,11.4275934 7.6378029,11.4275934 C7.21601867,11.1989627 6.71933817,10.2213693 6.64444191,10.0676349 C6.63655809,10.0558091 6.63261618,10.0400415 6.63261618,10.0282158 C6.60502282,9.77987552 6.3251473,7.3753112 5.04402697,7.3753112 C5.00854979,7.3753112 4.97307261,7.3753112 4.93759544,7.37925311 C4.93759544,7.37925311 3.91269917,7.4659751 4.76020954,10.3869295 C4.76020954,10.3948133 4.76415145,10.3987552 4.76415145,10.406639 L5.13863278,13.6429461 C5.13863278,13.646888 5.13863278,13.6508299 5.14257469,13.6587137 C5.17410996,13.7809129 5.5998361,15.4325726 6.69962863,16.6033195 C6.71933817,16.626971 6.7311639,16.6545643 6.7311639,16.6860996 L6.7311639,16.9659751 C6.7311639,16.9738589 6.72722199,16.9778008 6.71933817,16.9778008 L6.62079046,16.9778008 C6.38033402,16.9778008 6.18323859,17.1748963 6.18323859,17.4153527 L6.18323859,18.5545643 C6.18323859,18.7950207 6.38033402,18.9921162 6.62079046,18.9921162 L11.260417,18.9921162 C11.5008734,18.9921162 11.6979689,18.7950207 11.6979689,18.5545643 L11.6979689,17.4232365 C11.6979689,17.1827801 11.5008734,16.9856846 11.260417,16.9856846 C11.2525332,16.9856846 11.2485913,16.9817427 11.2485913,16.9738589 C11.4023257,15.546888 11.9541929,10.666805 12.2498361,10.2844398 C12.2577199,10.2726141 12.2656037,10.2607884 12.2695456,10.2450207 C12.3207905,10.0676349 12.5770145,8.98360996 11.8556452,8.41991701 Z M1.83925519,11.3408714 C1.83925519,11.4039419 1.78801037,11.4512448 1.72888174,11.4512448 C1.34257469,11.4512448 1.02722199,11.1358921 1.02722199,10.7495851 L1.02722199,1.57676349 C1.02722199,1.19045643 1.34257469,0.875103734 1.72888174,0.875103734 C1.79195228,0.875103734 1.83925519,0.926348548 1.83925519,0.985477178 L1.83925519,11.3408714 Z" id="Shape"></path>
                </g>
            </g>
        </g>
    </g>
</svg>