<?xml version="1.0" encoding="UTF-8"?>
<svg width="40px" height="40px" viewBox="0 0 40 40" version="1.1" xmlns="http://www.w3.org/2000/svg" xmlns:xlink="http://www.w3.org/1999/xlink">
    <!-- Generator: Sketch 53 (72520) - https://sketchapp.com -->
    <title>bpjs</title>
    <desc>Created with Sketch.</desc>
    <defs>
        <linearGradient x1="0%" y1="0%" x2="100%" y2="100%" id="linearGradient-1">
            <stop stop-color="#90F7EC" offset="0%"></stop>
            <stop stop-color="#32CCBC" offset="100%"></stop>
        </linearGradient>
        <rect id="path-2" x="0" y="0" width="20" height="20"></rect>
    </defs>
    <g id="Page-1" stroke="none" stroke-width="1" fill="none" fill-rule="evenodd">
        <g id="Desktop" transform="translate(-118.000000, -617.000000)">
            <g id="bpjs" transform="translate(118.000000, 617.000000)">
                <g id="Group_3021" fill-rule="nonzero">
                    <g id="Group" transform="translate(14.166667, 25.000000)" fill="#FFFFFF">
                        <circle id="Ellipse_37-2" cx="6.25" cy="6.25" r="6.25"></circle>
                    </g>
                    <rect id="Rectangle_123" fill="url(#linearGradient-1)" x="0" y="0" width="40" height="40" rx="5"></rect>
                </g>
                <g id="Mask_Group_63-Clipped" transform="translate(10.000000, 10.000000)">
                    <mask id="mask-3" fill="white">
                        <use xlink:href="#path-2"></use>
                    </mask>
                    <g id="Rectangle_163"></g>
                    <g id="Mask_Group_63" mask="url(#mask-3)">
                        <g transform="translate(-0.833333, 0.833333)" id="heartbeat">
                            <g>
                                <g id="Group_2603" fill="#FFFFFF" fill-rule="nonzero">
                                    <g id="Group_2602">
                                        <path d="M15.5208333,0.455833333 C13.4973377,0.535183875 11.6880139,1.73914811 10.8333333,3.575 C9.97865273,1.73914811 8.16932897,0.535183875 6.14583333,0.455833333 C4.6796554,0.476284399 3.28496186,1.09264736 2.28279109,2.16304436 C1.28062031,3.23344135 0.757315301,4.66565126 0.833333333,6.13 C0.83328538,6.94414496 0.996503189,7.75003289 1.31333333,8.5 L5.78333333,8.5 L6.79333333,6.4825 C6.90331996,6.29772516 7.10246791,6.1845085 7.3175,6.1845085 C7.53253209,6.1845085 7.73168004,6.29772516 7.84166667,6.4825 L9.66166667,10.1216667 L10.3091667,8.82583333 C10.4191533,8.64105849 10.6183012,8.52784184 10.8333333,8.52784184 C11.0483654,8.52784184 11.2475134,8.64105849 11.3575,8.82583333 L12.005,10.1216667 L13.825,6.4825 C13.9349866,6.29772516 14.1341346,6.1845085 14.3491667,6.1845085 C14.5641988,6.1845085 14.7633467,6.29772516 14.8733333,6.4825 L15.8833333,8.5 L20.3533333,8.5 C20.6701635,7.75003289 20.8333813,6.94414496 20.8333333,6.13 C20.9093514,4.66565126 20.3860464,3.23344135 19.3838756,2.16304436 C18.3817048,1.09264736 16.9870113,0.476284399 15.5208333,0.455833333 Z" id="Path_333"></path>
                                    </g>
                                </g>
                                <g id="Group_2605" transform="translate(1.666667, 7.500000)" fill="#FFFFFF" fill-rule="nonzero">
                                    <g id="Group_2604">
                                        <path d="M13.8541667,2.17416667 C13.6333516,2.17365449 13.4317535,2.04850238 13.3333333,1.85083333 L12.6858333,0.555 L10.8658333,4.19416667 C10.7680111,4.39447386 10.5645841,4.52151742 10.3416667,4.52151742 C10.1187493,4.52151742 9.91532223,4.39447386 9.8175,4.19416667 L9.16666667,2.89916667 L8.51916667,4.195 C8.40918004,4.37977484 8.21003209,4.4929915 7.995,4.4929915 C7.77996791,4.4929915 7.58081996,4.37977484 7.47083333,4.195 L5.65083333,0.555 L5,1.85083333 C4.90127911,2.04990225 4.6980357,2.1755965 4.47583333,2.175 L0.261666667,2.175 C1.4675,4.0725 3.63916667,5.875 6.35666667,8.1675 C7.11916667,8.81083333 7.93083333,9.49583333 8.7825,10.235 C9.00230984,10.4270001 9.33019016,10.4270001 9.55,10.235 C10.4016667,9.49666667 11.2166667,8.81166667 11.9758333,8.1675 C14.6925,5.87416667 16.8641667,4.0725 18.0708333,2.175 L13.8541667,2.17416667 Z" id="Path_334"></path>
                                    </g>
                                </g>
                            </g>
                        </g>
                    </g>
                </g>
            </g>
        </g>
    </g>
</svg>