<?xml version="1.0" encoding="UTF-8"?>
<svg width="40px" height="40px" viewBox="0 0 40 40" version="1.1" xmlns="http://www.w3.org/2000/svg" xmlns:xlink="http://www.w3.org/1999/xlink">
    <!-- Generator: Sketch 53 (72520) - https://sketchapp.com -->
    <title>e money</title>
    <desc>Created with Sketch.</desc>
    <defs>
        <linearGradient x1="0%" y1="0%" x2="100%" y2="100%" id="linearGradient-1">
            <stop stop-color="#97ABFF" offset="0%"></stop>
            <stop stop-color="#123597" offset="100%"></stop>
        </linearGradient>
    </defs>
    <g id="Page-1" stroke="none" stroke-width="1" fill="none" fill-rule="evenodd">
        <g id="Desktop" transform="translate(-114.000000, -767.000000)">
            <g id="e-money" transform="translate(114.000000, 767.000000)">
                <rect id="Rectangle-Copy-7" fill="url(#linearGradient-1)" x="0" y="0" width="40" height="40" rx="5"></rect>
                <g id="credit-card-(2)" transform="translate(7.000000, 12.000000)" fill="#FFFFFF" fill-rule="nonzero">
                    <path d="M5.18395062,10.7246914 L8.01728395,10.7246914 C8.5,10.7246914 8.87777778,10.3469136 8.87777778,9.86419753 C8.87777778,9.38148148 8.5,9.02469136 8.01728395,9.02469136 L5.18395062,9.02469136 C4.70123457,9.02469136 4.32345679,9.40246914 4.32345679,9.88518519 C4.32345679,10.3679012 4.72222222,10.7246914 5.18395062,10.7246914 Z" id="Path"></path>
                    <path d="M23.6111111,-5.61416483e-15 L0.965432099,-5.61416483e-15 C0.482716049,-5.61416483e-15 0.104938272,0.377777778 0.104938272,0.860493827 L0.104938272,6.21234568 C0.0839506173,6.27530864 0.0839506173,6.3382716 0.0839506173,6.40123457 C0.0839506173,6.46419753 0.0839506173,6.52716049 0.104938272,6.59012346 L0.104938272,16.1185185 C0.104938272,16.6012346 0.482716049,16.9790123 0.965432099,16.9790123 L23.6111111,16.9790123 C24.0938272,16.9790123 24.4716049,16.6012346 24.4716049,16.1185185 L24.4716049,0.860493827 C24.4716049,0.398765432 24.0938272,-7.10542736e-15 23.6111111,-5.61416483e-15 Z M22.7506173,15.2790123 L1.82592593,15.2790123 L1.82592593,7.2617284 L22.7506173,7.2617284 L22.7506173,15.2790123 Z M22.7506173,5.5617284 L1.82592593,5.5617284 L1.82592593,1.72098765 L22.7506173,1.72098765 L22.7506173,5.5617284 Z" id="Shape"></path>
                </g>
            </g>
        </g>
    </g>
</svg>