<?xml version="1.0" encoding="UTF-8"?>
<svg width="40px" height="40px" viewBox="0 0 40 40" version="1.1" xmlns="http://www.w3.org/2000/svg" xmlns:xlink="http://www.w3.org/1999/xlink">
    <!-- Generator: Sketch 53 (72520) - https://sketchapp.com -->
    <title>game</title>
    <desc>Created with Sketch.</desc>
    <defs>
        <linearGradient x1="0%" y1="0%" x2="100%" y2="100%" id="linearGradient-1">
            <stop stop-color="#FAD7A1" offset="0%"></stop>
            <stop stop-color="#E96D71" offset="100%"></stop>
        </linearGradient>
    </defs>
    <g id="Page-1" stroke="none" stroke-width="1" fill="none" fill-rule="evenodd">
        <g id="Desktop" transform="translate(-508.000000, -696.000000)">
            <g id="game" transform="translate(508.000000, 696.000000)">
                <rect id="Rectangle-Copy-5" fill="url(#linearGradient-1)" x="0" y="0" width="40" height="40" rx="5"></rect>
                <g id="gamepad-console" transform="translate(11.000000, 15.000000)" fill="#FFFFFF" fill-rule="nonzero">
                    <path d="M17.4892404,1.51352823 C16.5011366,0.525493625 15.3089818,0.031424408 13.9123607,0.031424408 L5.05908743,0.031424408 C3.66267395,0.031424408 2.47013843,0.525459016 1.48220765,1.51352823 C0.494034608,2.50159745 0,3.69389071 0,5.09040801 C0,6.48709836 0.494173042,7.6792878 1.48220765,8.6672878 C2.47013843,9.6552878 3.66253552,10.1495301 5.05908743,10.1495301 C6.32391985,10.1495301 7.43695993,9.72775774 8.3988306,8.88462842 L10.5726175,8.88462842 C11.5344189,9.72775774 12.647459,10.1495301 13.9123607,10.1495301 C15.3087395,10.1495301 16.5011366,9.65553005 17.4892404,8.6672878 C18.4773789,7.67908015 18.9714827,6.48713297 18.9714827,5.09040801 C18.9714827,3.69389071 18.4773443,2.50159745 17.4892404,1.51352823 Z M8.22090893,5.72284153 C8.22090893,5.81510747 8.19135337,5.89089982 8.13203461,5.94997632 C8.07275046,6.00932969 7.99706193,6.03891985 7.90476138,6.03891985 L6.00759927,6.03891985 L6.00759927,7.93611658 C6.00759927,8.02838251 5.97804372,8.10417486 5.91872495,8.16328597 C5.8594408,8.22260474 5.78378689,8.2521949 5.69145173,8.2521949 L4.42668852,8.2521949 C4.3344918,8.2521949 4.25869945,8.22260474 4.1994153,8.16328597 C4.14020036,8.10417486 4.11064481,8.02838251 4.11064481,7.93611658 L4.11064481,6.03891985 L2.21330965,6.03891985 C2.12111293,6.03891985 2.04532058,6.00932969 1.98603643,5.94997632 C1.92682149,5.89089982 1.89726594,5.81510747 1.89726594,5.72284153 L1.89726594,4.45807832 C1.89726594,4.3658816 1.92682149,4.29008925 1.98603643,4.2308051 C2.04532058,4.17148634 2.12111293,4.14193078 2.21330965,4.14193078 L4.11057559,4.14193078 L4.11057559,2.24476867 C4.11057559,2.15257195 4.14013115,2.0767796 4.19934608,2.01749545 C4.25859563,1.95814208 4.33442259,1.92862113 4.42661931,1.92862113 L5.69138251,1.92862113 C5.78368306,1.92862113 5.85937158,1.95817668 5.91865574,2.01749545 C5.9779745,2.0767796 6.00753005,2.15257195 6.00753005,2.24476867 L6.00753005,4.14193078 L7.90469217,4.14193078 C7.99699271,4.14193078 8.07268124,4.17148634 8.13196539,4.2308051 C8.19128415,4.29008925 8.22083971,4.3658816 8.22083971,4.45807832 L8.22083971,5.72284153 L8.22090893,5.72284153 Z M13.5419126,7.24938251 C13.2948434,7.49645173 12.9967268,7.62007286 12.647459,7.62007286 C12.2985719,7.62007286 12.0003515,7.49645173 11.7533862,7.24938251 C11.5063169,7.00255556 11.3828342,6.70433515 11.3828342,6.35520583 C11.3828342,6.00604189 11.5063169,5.70795993 11.7533862,5.46099454 C12.0003515,5.21416758 12.2985719,5.09040801 12.647459,5.09040801 C12.9967268,5.09040801 13.2948434,5.21416758 13.5419126,5.46099454 C13.7887395,5.70795993 13.9123607,6.00604189 13.9123607,6.35520583 C13.9123607,6.70433515 13.7887395,7.00255556 13.5419126,7.24938251 Z M16.0711967,4.71989071 C15.8244044,4.96682149 15.526184,5.09040801 15.17702,5.09040801 C14.8278561,5.09040801 14.5297741,4.96695993 14.2828434,4.71989071 C14.0357741,4.47278689 13.9122568,4.17480874 13.9122568,3.82557559 C13.9122568,3.47655009 14.0357741,3.17846812 14.2828434,2.93146812 C14.5297741,2.68439891 14.8278561,2.56091621 15.17702,2.56091621 C15.526184,2.56091621 15.8244044,2.68439891 16.0711967,2.93146812 C16.3182659,3.17846812 16.4419217,3.47655009 16.4419217,3.82557559 C16.4419217,4.17477413 16.3184044,4.47289071 16.0711967,4.71989071 Z" id="Shape"></path>
                </g>
            </g>
        </g>
    </g>
</svg>