<?xml version="1.0" encoding="UTF-8"?>
<svg width="40px" height="40px" viewBox="0 0 40 40" version="1.1" xmlns="http://www.w3.org/2000/svg" xmlns:xlink="http://www.w3.org/1999/xlink">
    <!-- Generator: Sketch 53 (72520) - https://sketchapp.com -->
    <title>indohome</title>
    <desc>Created with Sketch.</desc>
    <defs>
        <linearGradient x1="0%" y1="0%" x2="100%" y2="100%" id="linearGradient-1">
            <stop stop-color="#FAD7A1" offset="0%"></stop>
            <stop stop-color="#E96D71" offset="100%"></stop>
        </linearGradient>
        <rect id="path-2" x="0" y="0" width="20" height="20"></rect>
    </defs>
    <g id="Page-1" stroke="none" stroke-width="1" fill="none" fill-rule="evenodd">
        <g id="Desktop" transform="translate(-318.000000, -617.000000)">
            <g id="indohome" transform="translate(318.000000, 617.000000)">
                <g id="Group_3017" fill-rule="nonzero">
                    <g id="Group" transform="translate(14.166667, 25.000000)" fill="#F57162">
                        <circle id="Ellipse_38-2" cx="6.25" cy="6.25" r="6.25"></circle>
                    </g>
                    <rect id="Rectangle_128" fill="url(#linearGradient-1)" x="0" y="0" width="40" height="40" rx="5"></rect>
                </g>
                <g id="Mask_Group_60-Clipped" transform="translate(10.000000, 10.000000)">
                    <mask id="mask-3" fill="white">
                        <use xlink:href="#path-2"></use>
                    </mask>
                    <g id="Rectangle_160"></g>
                    <g id="Mask_Group_60" mask="url(#mask-3)" fill="#FFFFFF" fill-rule="nonzero">
                        <g id="router" transform="translate(0.000000, 0.326667)">
                            <path d="M18.3016667,12.0091667 L1.69833333,12.0091667 C0.760750555,12.0100854 0.000918749097,12.7699172 -2.26485497e-16,13.7075 L-2.26485497e-16,16.815 C0.000918749097,17.7525828 0.760750555,18.5124146 1.69833333,18.5133333 L18.3016667,18.5133333 C19.2389246,18.5124155 19.9986221,17.7530907 20,16.8158333 L20,13.7075 C19.9990813,12.7699172 19.2392494,12.0100854 18.3016667,12.0091667 L18.3016667,12.0091667 Z M12.515,15.855 L3.31333333,15.855 C3.09590151,15.8631472 2.89140703,15.7517947 2.78027093,15.5647339 C2.66913483,15.3776731 2.66913483,15.1448269 2.78027093,14.9577661 C2.89140703,14.7707053 3.09590151,14.6593528 3.31333333,14.6675 L12.515,14.6675 C12.7324318,14.6593528 12.9369263,14.7707053 13.0480624,14.9577661 C13.1591985,15.1448269 13.1591985,15.3776731 13.0480624,15.5647339 C12.9369263,15.7517947 12.7324318,15.8631472 12.515,15.855 L12.515,15.855 Z M14.7233333,15.855 C14.3951841,15.855 14.1291667,15.5889825 14.1291667,15.2608333 C14.1291667,14.9326841 14.3951841,14.6666667 14.7233333,14.6666667 C15.0514825,14.6666667 15.3175,14.9326841 15.3175,15.2608333 C15.3125938,15.5870657 15.0495585,15.8504699 14.7233333,15.8558333 L14.7233333,15.855 Z M16.6866667,15.855 C16.3585175,15.855 16.0925,15.5889825 16.0925,15.2608333 C16.0925,14.9326841 16.3585175,14.6666667 16.6866667,14.6666667 C17.0148159,14.6666667 17.2808333,14.9326841 17.2808333,15.2608333 C17.2759271,15.5870657 17.0128918,15.8504699 16.6866667,15.8558333 L16.6866667,15.855 Z" id="Path_323"></path>
                            <path d="M9.40583333,8.005 L9.40583333,10.8216667 L10.5933333,10.8216667 L10.5933333,8.005 C11.66792,7.70793148 12.35758,6.66240196 12.2076848,5.55763151 C12.0577896,4.45286107 11.1144763,3.62889331 9.99958333,3.62889331 C8.88469038,3.62889331 7.94137706,4.45286107 7.79148184,5.55763151 C7.64158663,6.66240196 8.33124662,7.70793148 9.40583333,8.005 L9.40583333,8.005 Z" id="Path_324"></path>
                            <path d="M6.72583333,9.12916667 C6.95944636,9.35104821 7.32733251,9.34631146 7.55515532,9.11848865 C7.78297813,8.89066584 7.78771488,8.52277969 7.56583333,8.28916667 C6.22391018,6.94413319 6.22391018,4.76670014 7.56583333,3.42166667 C7.77744594,3.18661244 7.76783692,2.82698619 7.54397418,2.60356762 C7.32011144,2.38014905 6.96046682,2.37125431 6.72583333,2.58333333 C4.92066762,4.39256606 4.92066762,7.3216006 6.72583333,9.13083333 L6.72583333,9.12916667 Z" id="Path_325"></path>
                            <path d="M12.4341667,9.12916667 C12.6661713,9.36101754 13.042162,9.36101754 13.2741667,9.12916667 C15.0793324,7.31993394 15.0793324,4.3908994 13.2741667,2.58166667 C13.0405536,2.35978512 12.6726675,2.36452187 12.4448447,2.59234468 C12.2170219,2.82016749 12.2122851,3.18805364 12.4341667,3.42166667 C13.7760898,4.76670014 13.7760898,6.94413319 12.4341667,8.28916667 C12.3226196,8.40047463 12.2599329,8.55158424 12.2599329,8.70916667 C12.2599329,8.86674909 12.3226196,9.0178587 12.4341667,9.12916667 L12.4341667,9.12916667 Z" id="Path_326"></path>
                            <path d="M5.57166667,10.8775 C5.81129199,10.8760477 6.02659126,10.7307934 6.11765616,10.5091415 C6.20872106,10.2874895 6.15772537,10.0328289 5.98833333,9.86333333 C3.77809813,7.64814081 3.77809813,4.06185919 5.98833333,1.84666667 C6.19142712,1.6112922 6.17874512,1.25915227 5.95924584,1.03899711 C5.73974656,0.818841961 5.38764603,0.805109375 5.15166667,1.0075 C2.47818889,3.68689178 2.47818889,8.02477489 5.15166667,10.7041667 C5.26211685,10.8149517 5.41189812,10.8775603 5.56833333,10.8783333 L5.57166667,10.8775 Z" id="Path_327"></path>
                            <path d="M15.6666667,5.85583333 C15.6709335,7.36003533 15.0731769,8.8034133 14.0066667,9.86416667 C13.7847851,10.0977797 13.7895219,10.4656658 14.0173447,10.6934887 C14.2451675,10.9213115 14.6130536,10.9260482 14.8466667,10.7041667 C17.5201444,8.02477489 17.5201444,3.68689178 14.8466667,1.0075 C14.6994325,0.844607628 14.4743655,0.776192826 14.261385,0.829588917 C14.0484046,0.882985008 13.8822332,1.04948678 13.8292602,1.26257285 C13.7762872,1.47565893 13.8451489,1.70058968 14.0083333,1.8475 C15.0741535,2.90858102 15.6712815,4.35189046 15.6666667,5.85583333 L15.6666667,5.85583333 Z" id="Path_328"></path>
                        </g>
                    </g>
                </g>
            </g>
        </g>
    </g>
</svg>