<?xml version="1.0" encoding="UTF-8"?>
<svg width="40px" height="40px" viewBox="0 0 40 40" version="1.1" xmlns="http://www.w3.org/2000/svg" xmlns:xlink="http://www.w3.org/1999/xlink">
    <!-- Generator: Sketch 53 (72520) - https://sketchapp.com -->
    <title>keuangan</title>
    <desc>Created with Sketch.</desc>
    <defs>
        <linearGradient x1="0%" y1="0%" x2="100%" y2="100%" id="linearGradient-1">
            <stop stop-color="#97ABFF" offset="0%"></stop>
            <stop stop-color="#123597" offset="100%"></stop>
        </linearGradient>
        <rect id="path-2" x="0" y="0" width="20" height="20"></rect>
    </defs>
    <g id="Page-1" stroke="none" stroke-width="1" fill="none" fill-rule="evenodd">
        <g id="Desktop" transform="translate(-448.000000, -617.000000)">
            <g id="keuangan" transform="translate(448.000000, 617.000000)">
                <g id="Group" transform="translate(14.166667, 25.000000)" fill="#5173FD" fill-rule="nonzero">
                    <circle id="Ellipse_37-2" cx="6.25" cy="6.25" r="6.25"></circle>
                </g>
                <rect id="Rectangle_123" fill="url(#linearGradient-1)" fill-rule="nonzero" x="0" y="0" width="40" height="40" rx="5"></rect>
                <g id="Mask_Group_62-Clipped" transform="translate(10.000000, 10.000000)">
                    <mask id="mask-3" fill="white">
                        <use xlink:href="#path-2"></use>
                    </mask>
                    <g id="Rectangle_162"></g>
                    <g id="Mask_Group_62" mask="url(#mask-3)" fill="#FFFFFF" fill-rule="nonzero">
                        <g id="credit-card">
                            <g id="Group_2599">
                                <path d="M15.7558333,5.155 C15.8823365,5.15574651 15.9920672,5.06777317 16.0188487,4.94413512 C16.0456303,4.82049707 15.9821395,4.69500184 15.8666667,4.64333333 L5.6375,0.1075 C5.33797769,-0.0266050303 4.9973967,-0.0359829305 4.69094866,0.0814367015 C4.38450062,0.198856333 4.13738789,0.433416881 4.00416667,0.733333333 L0.420833333,8.76416667 C0.286728303,9.06368897 0.277350403,9.40426996 0.394770035,9.710718 C0.512189667,10.017166 0.746750214,10.2642788 1.04666667,10.3975 L3.10916667,11.29 C3.23019775,11.3435651 3.37005355,11.3326683 3.48132737,11.2610032 C3.59260119,11.1893382 3.66037163,11.0665149 3.66166667,10.9341667 L3.66166667,7.52416667 C3.66188743,6.89619865 3.9116727,6.29406271 4.35602565,5.85033495 C4.8003786,5.40660718 5.40286563,5.15766995 6.03083333,5.15833333 L15.7558333,5.15833333 L15.7558333,5.15833333 L15.7558333,5.155 Z" id="Path_330"></path>
                                <path d="M18.4325,6.2675 L6.02666667,6.2675 C5.69514605,6.2675 5.37720366,6.39919605 5.14278319,6.63361652 C4.90836272,6.868037 4.77666667,7.18597939 4.77666667,7.5175 L4.77666667,16.2833333 C4.77666667,16.9736893 5.33631073,17.5333333 6.02666667,17.5333333 L7.69333333,17.5333333 C7.65209606,17.2854659 7.63146993,17.0346075 7.63166667,16.7833333 C7.63252873,16.5018647 7.65846458,16.2210324 7.70916667,15.9441667 L6.36583333,15.9441667 L6.36583333,11.75 L18.0966667,11.75 L18.0966667,15.9416667 L16.75,15.9416667 C16.8007021,16.2185324 16.8266379,16.4993647 16.8275,16.7808333 C16.8276967,17.0321075 16.8070706,17.2829659 16.7658333,17.5308333 L18.4325,17.5308333 C19.1228559,17.5308333 19.6825,16.9711893 19.6825,16.2808333 L19.6825,7.52 C19.6831639,7.18804644 19.551761,6.86946142 19.3172685,6.63449996 C19.0827761,6.39953851 18.7644542,6.26749934 18.4325,6.2675 Z M18.0966667,9.16666667 L6.36583333,9.16666667 L6.36583333,7.85583333 L18.0966667,7.85583333 L18.0966667,9.16666667 Z" id="Path_331"></path>
                                <path d="M12.2316667,13.5658333 C10.4546905,13.5658333 9.01416667,15.0063572 9.01416667,16.7833333 C9.01416667,18.5603095 10.4546905,20.0008333 12.2316667,20.0008333 C14.0086428,20.0008333 15.4491667,18.5603095 15.4491667,16.7833333 C15.4491667,15.0063572 14.0086428,13.5658333 12.2316667,13.5658333 L12.2316667,13.5658333 Z M13.1566667,18.0516667 C13.0194437,18.2207245 12.831646,18.3413473 12.6208333,18.3958333 C12.5804095,18.4005658 12.543644,18.4215215 12.5189734,18.4538919 C12.4943027,18.4862623 12.4838451,18.5272682 12.49,18.5675 C12.49,18.6616667 12.49,18.7558333 12.49,18.8541667 C12.4947884,18.8893702 12.4831567,18.9248241 12.4584446,18.9503492 C12.4337324,18.9758742 12.3986734,18.9886469 12.3633333,18.985 C12.2611111,18.9888889 12.1588889,18.9888889 12.0566667,18.985 C11.9666667,18.985 11.9258333,18.9316667 11.9258333,18.8458333 L11.9258333,18.6375 C11.9258333,18.4858333 11.9175,18.4775 11.77,18.4533333 C11.5819382,18.4284151 11.3985778,18.375906 11.2258333,18.2975 C11.0908333,18.2316667 11.0741667,18.1991667 11.115,18.0558333 C11.1433333,17.9491667 11.1725,17.8433333 11.205,17.7408333 C11.2416667,17.6183333 11.2741667,17.6058333 11.3891667,17.6633333 C11.5785615,17.7594833 11.7838305,17.8204711 11.995,17.8433333 C12.1296102,17.862547 12.2669119,17.8440863 12.3916667,17.79 C12.4997505,17.7515577 12.577341,17.6560053 12.5927781,17.542332 C12.6082152,17.4286587 12.5589174,17.3158746 12.465,17.25 C12.3973155,17.1948735 12.3213896,17.150724 12.24,17.1191667 C12.0274121,17.0415059 11.8207556,16.9484826 11.6216667,16.8408333 C11.3008264,16.6883927 11.1048824,16.3562115 11.1266667,16.0016667 C11.1407945,15.5996548 11.4140116,15.2532425 11.8016667,15.1458333 C11.9683333,15.0841667 11.9683333,15.0883333 11.9683333,14.9166667 L11.9683333,14.7408333 C11.9683333,14.61 11.9925,14.5891667 12.1241667,14.585 L12.2425,14.585 C12.5208333,14.585 12.5208333,14.585 12.5208333,14.8633333 C12.5208333,15.06 12.5208333,15.06 12.7175,15.0883333 C12.8655866,15.1123186 13.0100588,15.1548763 13.1475,15.215 C13.1821327,15.2238742 13.2112104,15.24734 13.227199,15.2793171 C13.2431876,15.3112943 13.2445136,15.348636 13.2308333,15.3816667 C13.1983333,15.5 13.165,15.6233333 13.1241667,15.7375 C13.0833333,15.8516667 13.0508333,15.8641667 12.9441667,15.815 C12.7333529,15.7117539 12.4992732,15.6652252 12.265,15.68 C12.2033538,15.6819174 12.142484,15.6943168 12.085,15.7166667 C11.9916738,15.747284 11.9237838,15.8281767 11.9098192,15.925399 C11.8958545,16.0226214 11.9382313,16.1193523 12.0191667,16.175 C12.109855,16.2431154 12.2090207,16.2991412 12.3141667,16.3416667 C12.4993071,16.4118145 12.679688,16.4939324 12.8541667,16.5875 C13.1118211,16.7208852 13.2955601,16.9633782 13.3542625,17.247511 C13.412965,17.5316438 13.3403668,17.8270966 13.1566667,18.0516667 L13.1566667,18.0516667 Z" id="Path_332"></path>
                            </g>
                        </g>
                    </g>
                </g>
            </g>
        </g>
    </g>
</svg>