<?xml version="1.0" encoding="UTF-8"?>
<svg width="40px" height="40px" viewBox="0 0 40 40" version="1.1" xmlns="http://www.w3.org/2000/svg" xmlns:xlink="http://www.w3.org/1999/xlink">
    <!-- Generator: Sketch 53 (72520) - https://sketchapp.com -->
    <title>minta dana</title>
    <desc>Created with Sketch.</desc>
    <defs>
        <linearGradient x1="0%" y1="0%" x2="100%" y2="100%" id="linearGradient-1">
            <stop stop-color="#ABDCFF" offset="0%"></stop>
            <stop stop-color="#0396FF" offset="100%"></stop>
        </linearGradient>
    </defs>
    <g id="Page-1" stroke="none" stroke-width="1" fill="none" fill-rule="evenodd">
        <g id="Desktop" transform="translate(-258.000000, -696.000000)">
            <g id="minta-dana" transform="translate(258.000000, 696.000000)">
                <rect id="Rectangle-Copy" fill="url(#linearGradient-1)" x="0" y="0" width="40" height="40" rx="5"></rect>
                <g id="funds" transform="translate(9.000000, 11.000000)" fill="#FFFFFF" fill-rule="nonzero">
                    <path d="M16.2122298,7.98748485 C16.21175,7.98355051 16.2114621,7.97956818 16.2108864,7.97568182 C16.2081035,7.95629798 16.2044091,7.93696212 16.1991793,7.91786616 C16.1991313,7.91767424 16.1990354,7.91748232 16.1989874,7.91724242 C16.1940934,7.89939394 16.1878561,7.88178535 16.180803,7.86436869 C16.1787879,7.85937879 16.1765808,7.85458081 16.1744217,7.84968687 C16.1688561,7.83711616 16.1626667,7.82473737 16.1559495,7.81255051 C16.1530227,7.80722475 16.1501919,7.80189899 16.1470253,7.79666919 C16.145346,7.79383838 16.1440025,7.79091162 16.1422273,7.78808081 C16.1351263,7.77680556 16.1273535,7.76620202 16.1194848,7.75569444 C16.1179975,7.75372727 16.116798,7.75166414 16.1153106,7.74974495 C16.1033157,7.73419949 16.0903611,7.71975758 16.0767828,7.70608333 C16.0742399,7.70349242 16.0714571,7.70109343 16.0688182,7.69859848 C16.0570152,7.68722727 16.0447803,7.67657576 16.0320177,7.66654798 C16.0287551,7.66400505 16.0255884,7.66146212 16.0222298,7.65901515 C16.005149,7.64634848 15.9875404,7.63454545 15.9691641,7.62432576 L8.9005404,3.60635354 L12.9704268,1.04356061 L19.7934899,4.92186364 L16.9199318,6.73132576 C16.6956742,6.87248232 16.6283586,7.16875758 16.7695631,7.39296717 C16.9107197,7.61722475 17.206947,7.6845404 17.4312045,7.54333586 L20.9829571,5.30685354 C21.1257449,5.21698737 21.2108131,5.05870202 21.2069747,4.89000505 C21.2031843,4.72130808 21.1111111,4.56710101 20.9643889,4.48371212 L13.1948763,0.0673636364 C13.041197,-0.0200555556 12.8518207,-0.0157373737 12.7021237,0.0784469697 L7.71433586,3.21925253 C7.71332828,3.21987626 7.71227273,3.22054798 7.71126515,3.22117172 L5.21885859,4.79063889 C5.21770707,4.79135859 5.21655556,4.79207828 5.21545202,4.79279798 L0.224257576,7.93576263 C0.081469697,8.02562879 -0.00359848485,8.18391414 0.00023989899,8.35261111 C0.00403030303,8.52130808 0.0961035354,8.67551515 0.242825758,8.75890404 L8.01238636,13.1752525 C8.08598737,13.2171389 8.16774495,13.2379621 8.24945455,13.2379621 C8.33836111,13.2379621 8.42712374,13.2132525 8.50509091,13.1641692 L12.0568434,10.9276389 C12.281101,10.7864823 12.3484167,10.4902071 12.2072121,10.2659975 C12.0661035,10.0417399 11.7697803,9.97437626 11.5455707,10.1156288 L8.23683586,12.1991035 L1.41377273,8.32070455 L5.48370707,5.75786364 L12.760803,9.89429798 L12.760803,15.3727273 C12.760803,15.5474697 12.8557551,15.708346 13.0087146,15.7927904 C13.0810202,15.8327096 13.1608586,15.8525253 13.240601,15.8525253 C13.3295556,15.8525253 13.4183182,15.8278157 13.4962374,15.7787323 L15.9918586,14.20725 C16.1313838,14.119399 16.2160202,13.9661035 16.2160202,13.8012449 L16.2160202,8.04366919 C16.2160202,8.04083838 16.2155404,8.03815152 16.2154444,8.03532071 C16.2151566,8.01939141 16.214101,8.00346212 16.2122298,7.98748485 Z M13.720399,14.5036692 L13.720399,9.61519949 C13.720399,9.44261616 13.627702,9.28337121 13.4776692,9.19811111 L6.40491919,5.17783586 L7.9792803,4.18642929 L14.8022955,8.0647803 L14.204899,8.44094192 C13.9806414,8.58209848 13.9133258,8.87837374 14.0545303,9.10258333 C14.1456919,9.24748232 14.3015783,9.32679293 14.4610152,9.32679293 C14.5483384,9.32679293 14.6368131,9.30294697 14.7161717,9.25295202 L15.2563763,8.91282323 L15.2563763,13.5364444 L13.720399,14.5036692 Z" id="Shape"></path>
                    <path d="M20.4717323,6.41398737 L16.9199798,8.6504697 C16.6957222,8.79162626 16.6284066,9.08790152 16.7696111,9.31211111 C16.8607727,9.4570101 17.0166591,9.53632071 17.176096,9.53632071 C17.2634192,9.53632071 17.3518939,9.51247475 17.4312525,9.4624798 L20.9830051,7.22599747 C21.2072626,7.08484091 21.2745783,6.78856566 21.1333737,6.56435606 C20.9922172,6.34009848 20.6959419,6.27273485 20.4717323,6.41398737 Z" id="Path"></path>
                    <path d="M11.5455227,12.0347727 L8.23678788,14.1182475 L0.716962121,9.84387121 C0.486755051,9.71298232 0.193694444,9.79339646 0.0627575758,10.0238914 C-0.0681792929,10.2542424 0.0123787879,10.5471591 0.242777778,10.678096 L8.01233838,15.0944444 C8.08593939,15.1363308 8.16769697,15.157154 8.24940657,15.157154 C8.33831313,15.157154 8.42707576,15.1324444 8.50504293,15.0833611 L12.0567955,12.8468308 C12.281053,12.7056742 12.3483687,12.409399 12.2071641,12.1851894 C12.0660556,11.9608838 11.7697323,11.8935202 11.5455227,12.0347727 Z" id="Path"></path>
                    <path d="M20.4717323,8.33317929 L16.9199798,10.5696616 C16.6957222,10.7108182 16.6284066,11.0070934 16.7696111,11.231303 C16.8607727,11.376202 17.0166591,11.4555126 17.176096,11.4555126 C17.2634192,11.4555126 17.3518939,11.4316667 17.4312525,11.3816717 L20.9830051,9.14518939 C21.2072626,9.00403283 21.2745783,8.70775758 21.1333737,8.48354798 C20.9922172,8.25924242 20.6959419,8.19192677 20.4717323,8.33317929 Z" id="Path"></path>
                    <path d="M11.5455227,13.9539646 L8.23678788,16.0374394 L0.716962121,11.7630631 C0.486755051,11.6321742 0.193694444,11.7125884 0.0627575758,11.9430833 C-0.0681792929,12.1734343 0.0123787879,12.466351 0.242777778,12.5972879 L8.01233838,17.0136364 C8.08593939,17.0555227 8.16769697,17.076346 8.24940657,17.076346 C8.33831313,17.076346 8.42707576,17.0516364 8.50504293,17.002553 L12.0567955,14.7660227 C12.281053,14.6248662 12.3483687,14.3285909 12.2071641,14.1043813 C12.0660556,13.8800278 11.7697323,13.8127121 11.5455227,13.9539646 Z" id="Path"></path>
                    <path d="M20.4717323,10.2523712 L16.9199798,12.4888535 C16.6957222,12.6300101 16.6284066,12.9262854 16.7696111,13.1504949 C16.8607727,13.2953939 17.0166591,13.3747045 17.176096,13.3747045 C17.2634192,13.3747045 17.3518939,13.3508586 17.4312525,13.3008636 L20.9830051,11.0643813 C21.2072626,10.9232247 21.2745783,10.6269495 21.1333737,10.4027399 C20.9922172,10.1784823 20.6959419,10.1111667 20.4717323,10.2523712 Z" id="Path"></path>
                    <path d="M11.5455227,15.8731566 L8.23678788,17.9566313 L0.716962121,13.6822551 C0.486755051,13.5513662 0.193694444,13.6317803 0.0627575758,13.8622753 C-0.0681792929,14.0926263 0.0123787879,14.3855429 0.242777778,14.5164798 L8.01233838,18.9328283 C8.08593939,18.9747146 8.16769697,18.9955379 8.24940657,18.9955379 C8.33831313,18.9955379 8.42707576,18.9708283 8.50504293,18.9217449 L12.0567955,16.6852146 C12.281053,16.5440581 12.3483687,16.2477828 12.2071641,16.0235732 C12.0660556,15.7992677 11.7697323,15.731904 11.5455227,15.8731566 Z" id="Path"></path>
                </g>
            </g>
        </g>
    </g>
</svg>