<?xml version="1.0" encoding="UTF-8"?>
<svg width="40px" height="40px" viewBox="0 0 40 40" version="1.1" xmlns="http://www.w3.org/2000/svg" xmlns:xlink="http://www.w3.org/1999/xlink">
    <!-- Generator: Sketch 53 (72520) - https://sketchapp.com -->
    <title>pascabayar</title>
    <desc>Created with Sketch.</desc>
    <defs>
        <linearGradient x1="0%" y1="0%" x2="100%" y2="100%" id="linearGradient-1">
            <stop stop-color="#F5CBFF" offset="0%"></stop>
            <stop stop-color="#C346C2" offset="100%"></stop>
        </linearGradient>
        <rect id="path-2" x="0" y="0" width="20" height="20"></rect>
    </defs>
    <g id="Page-1" stroke="none" stroke-width="1" fill="none" fill-rule="evenodd">
        <g id="Desktop" transform="translate(-569.000000, -617.000000)">
            <g id="pascabayar" transform="translate(569.000000, 617.000000)">
                <g id="Group" transform="translate(14.166667, 25.000000)" fill="#00D8FD" fill-rule="nonzero">
                    <circle id="Ellipse_39-2" cx="6.25" cy="6.25" r="6.25"></circle>
                </g>
                <g id="Group_2596">
                    <rect id="Rectangle_123" fill="url(#linearGradient-1)" fill-rule="nonzero" x="0" y="0" width="40" height="40" rx="5"></rect>
                    <g id="Mask_Group_61-Clipped" transform="translate(10.000000, 10.000000)">
                        <mask id="mask-3" fill="white">
                            <use xlink:href="#path-2"></use>
                        </mask>
                        <g id="Rectangle_161"></g>
                        <g id="Mask_Group_61" mask="url(#mask-3)">
                            <g transform="translate(1.666667, 0.000000)" id="cellphone-internet-connection">
                                <g>
                                    <path d="M17.5483333,9.8525 L17.5483333,9.84666667 C17.5442009,6.80312482 15.0777091,4.33700575 12.0341667,4.33333333 L12.0341667,4.33333333 C8.98886381,4.33654928 6.52108923,6.80469669 6.51833333,9.85 L6.51833333,9.85 C6.52246671,12.894327 8.98983857,15.3609533 12.0341667,15.3641667 L12.0341667,15.3641667 C15.07668,15.3595814 17.5423684,12.8950109 17.5483333,9.8525 Z M12.0341667,14.7791667 L12.0341667,14.7791667 C11.4691667,14.7791667 10.8575,13.7025 10.5666667,11.995 C11.0541352,12.0465571 11.5439792,12.0724262 12.0341667,12.0725 C12.5243542,12.0724277 13.0141982,12.0465586 13.5016667,11.995 C13.2108333,13.7025 12.5991667,14.7791667 12.0341667,14.7791667 L12.0341667,14.7791667 Z M12.0341667,11.4883333 C11.5153849,11.4892612 10.9969951,11.4597662 10.4816667,11.4 C10.3652248,10.3688324 10.3652248,9.3278343 10.4816667,8.29666667 C11.5130689,8.17944399 12.5544311,8.17944399 13.5858333,8.29666667 C13.7022752,9.3278343 13.7022752,10.3688324 13.5858333,11.4 C13.0708088,11.4600549 12.5526793,11.489551 12.0341667,11.4883333 L12.0341667,11.4883333 Z M7.10416667,9.85 C7.10416667,9.285 8.18,8.6725 9.88833333,8.38416667 C9.784914,9.35893123 9.784914,10.3419021 9.88833333,11.3166667 C8.18083333,11.0291667 7.10416667,10.4158333 7.10416667,9.85083333 L7.10416667,9.85 Z M12.0341667,4.91666667 L12.0341667,4.91666667 C12.5991667,4.91666667 13.2108333,5.9925 13.5016667,7.70083333 C12.5260682,7.59738057 11.5422651,7.59738057 10.5666667,7.70083333 C10.8575,5.99583333 11.4691667,4.91666667 12.0341667,4.91666667 Z M14.18,8.37916667 C15.8866667,8.66916667 16.9616667,9.28 16.9641667,9.84416667 L16.9641667,9.84416667 L16.9641667,9.84416667 C16.9641667,10.41 15.8858333,11.02 14.18,11.3083333 C14.231574,10.8214236 14.2574432,10.3321335 14.2575,9.8425 C14.2571774,9.35509116 14.2313085,8.86803419 14.18,8.38333333 L14.18,8.37916667 Z M16.8291667,8.705 C15.9966746,8.20473371 15.0666115,7.88874528 14.1016667,7.77833333 C13.9915633,6.81279682 13.6755616,5.88212621 13.175,5.04916667 C14.9842971,5.48481833 16.395981,6.89907828 16.8283333,8.70916667 L16.8291667,8.705 Z M10.8933333,5.05333333 C10.3927387,5.88634534 10.0764711,6.81696218 9.96583333,7.7825 C9.00069899,7.89260787 8.07051606,8.20892122 7.23833333,8.71 C7.6727562,6.90114255 9.08467412,5.4885808 10.8933333,5.05333333 L10.8933333,5.05333333 Z M7.23833333,10.99 C8.07094548,11.4900074 9.00095096,11.8059762 9.96583333,11.9166667 C10.0760649,12.8822956 10.3923611,13.8129965 10.8933333,14.6458333 C9.08518866,14.210203 7.6735515,12.7982439 7.23833333,10.99 Z M13.175,14.6433333 C13.6760535,13.811509 13.9921061,12.8815412 14.1016667,11.9166667 C15.0683475,11.8070915 16.0000571,11.490458 16.8333333,10.9883333 C16.3995531,12.7984146 14.985476,14.2112033 13.175,14.6433333 L13.175,14.6433333 Z M12.0341667,16.2441667 C11.8416667,16.2441667 11.6525,16.2316667 11.4633333,16.2158333 L11.4633333,17.5 L1.725,17.5 L1.725,2.14166667 L11.4633333,2.14166667 L11.4633333,3.48166667 C11.6525,3.465 11.84,3.45333333 12.0341667,3.45333333 C12.1583333,3.45333333 12.2841667,3.46583333 12.4033333,3.47083333 L12.4033333,1.35 C12.4010414,0.604716705 11.7969522,0.00137239002 11.0516667,0 L2.13583333,0 C1.39087315,0.00183023413 0.787289944,0.60504109 0.785,1.35 L0.785,18.6491667 C0.787287689,19.3942617 1.39073833,19.9977123 2.13583333,20 L11.0525,20 C11.7979204,19.9981698 12.4018767,19.3945858 12.4041667,18.6491667 L12.4041667,16.2258333 C12.2816667,16.2333333 12.1583333,16.245 12.0341667,16.245 L12.0341667,16.2441667 Z M5.16666667,0.974166667 L8.01916667,0.974166667 C8.09890454,0.988135312 8.15707428,1.05738118 8.15707428,1.13833333 C8.15707428,1.21928549 8.09890454,1.28853135 8.01916667,1.3025 L5.16666667,1.3025 C5.08692879,1.28853135 5.02875906,1.21928549 5.02875906,1.13833333 C5.02875906,1.05738118 5.08692879,0.988135312 5.16666667,0.974166667 L5.16666667,0.974166667 Z M6.595,19.325 C6.2229949,19.32408 5.92204139,19.0220084 5.92250103,18.6500024 C5.92296068,18.2779964 6.22465975,17.9766694 6.59666598,17.9766687 C6.96867222,17.9766681 7.27037236,18.277994 7.27083333,18.65 C7.27083347,18.8291656 7.19960322,19.0009809 7.07283587,19.1275919 C6.94606853,19.254203 6.77416547,19.3252212 6.595,19.325 Z" id="Path_329" fill="#FFFFFF" fill-rule="nonzero"></path>
                                </g>
                            </g>
                        </g>
                    </g>
                </g>
            </g>
        </g>
    </g>
</svg>