<?xml version="1.0" encoding="UTF-8"?>
<svg width="40px" height="40px" viewBox="0 0 40 40" version="1.1" xmlns="http://www.w3.org/2000/svg" xmlns:xlink="http://www.w3.org/1999/xlink">
    <!-- Generator: Sketch 53 (72520) - https://sketchapp.com -->
    <title>pdam-2</title>
    <desc>Created with Sketch.</desc>
    <defs>
        <linearGradient x1="0%" y1="0%" x2="100%" y2="100%" id="linearGradient-1">
            <stop stop-color="#ABDCFF" offset="0%"></stop>
            <stop stop-color="#0396FF" offset="100%"></stop>
        </linearGradient>
        <rect id="path-2" x="0" y="0" width="20" height="20"></rect>
    </defs>
    <g id="Page-1" stroke="none" stroke-width="1" fill="none" fill-rule="evenodd">
        <g id="Desktop" transform="translate(-258.000000, -617.000000)">
            <g id="pdam-2" transform="translate(258.000000, 617.000000)">
                <g id="Group" transform="translate(14.166667, 25.000000)" fill="#FFFFFF" fill-rule="nonzero">
                    <circle id="Ellipse_37-2" cx="6.25" cy="6.25" r="6.25"></circle>
                </g>
                <rect id="Rectangle_123" fill="url(#linearGradient-1)" fill-rule="nonzero" x="0" y="0" width="40" height="40" rx="5"></rect>
                <g id="Mask_Group_39-Clipped" transform="translate(10.000000, 10.000000)">
                    <mask id="mask-3" fill="white">
                        <use xlink:href="#path-2"></use>
                    </mask>
                    <g id="Rectangle_129"></g>
                    <g id="drop_2_" transform="translate(1.666667, 0.000000)" fill="#FFFFFF" fill-rule="nonzero">
                        <g id="Group_2526">
                            <path d="M8.33833333,0.689166667 C7.79,-0.245833333 7.21,-0.213333333 6.66166667,0.689166667 C4.1475,4.42916667 0.343333333,10.0383333 0.343333333,12.8433333 C0.343333257,15.400313 1.70746562,17.7630596 3.92187494,19.0415495 C6.13628426,20.3200393 8.86454907,20.3200393 11.0789584,19.0415495 C13.2933677,17.7630596 14.6575001,15.400313 14.6575,12.8433333 C14.6566667,10.0058333 10.8525,4.42916667 8.33833333,0.689166667 Z M12.6583333,16.035 C12.124319,16.9019665 11.3824819,17.6220354 10.5,18.13 C10.0826135,18.3530511 9.56346715,18.1996583 9.33433431,17.7855792 C9.10520147,17.3715002 9.25098374,16.8501656 9.66166667,16.615 C10.2953029,16.2602728 10.8279395,15.7497218 11.2091667,15.1316667 C11.6004138,14.5119012 11.8227708,13.8005887 11.8541667,13.0683333 C11.8926281,12.6060968 12.2923098,12.2586288 12.7554029,12.2848331 C13.2184961,12.3110374 13.5764288,12.7013753 13.5625,13.165 C13.4939943,14.1800251 13.1840023,15.1639999 12.6583333,16.035 L12.6583333,16.035 Z" id="Path_278"></path>
                        </g>
                    </g>
                </g>
            </g>
        </g>
    </g>
</svg>