<?xml version="1.0" encoding="UTF-8"?>
<svg width="19px" height="19px" viewBox="0 0 19 19" version="1.1" xmlns="http://www.w3.org/2000/svg" xmlns:xlink="http://www.w3.org/1999/xlink">
    <!-- Generator: Sketch 53 (72520) - https://sketchapp.com -->
    <title>QR</title>
    <desc>Created with Sketch.</desc>
    <defs>
        <linearGradient x1="196.115211%" y1="142.912025%" x2="12.9396782%" y2="75.439544%" id="linearGradient-1">
            <stop stop-color="#FB0000" offset="0%"></stop>
            <stop stop-color="#FF7DA1" offset="100%"></stop>
        </linearGradient>
        <linearGradient x1="196.115211%" y1="50.5497753%" x2="12.9396782%" y2="50.1505298%" id="linearGradient-2">
            <stop stop-color="#FB0000" offset="0%"></stop>
            <stop stop-color="#FF7DA1" offset="100%"></stop>
        </linearGradient>
    </defs>
    <g id="Page-1" stroke="none" stroke-width="1" fill="none" fill-rule="evenodd">
        <g id="Desktop" transform="translate(-439.000000, -109.000000)">
            <g id="QR" transform="translate(436.000000, 106.000000)">
                <rect id="Rectangle" x="0" y="0" width="25" height="25"></rect>
                <g id="qr-code" transform="translate(3.000000, 3.000000)" fill-rule="nonzero">
                    <path d="M18.3480392,0.0620915033 L0.651960784,0.0620915033 C0.32620776,0.0620915033 0.0620915033,0.32620776 0.0620915033,0.651960784 L0.0620915033,18.3480392 C0.0620915033,18.6737922 0.32620776,18.9379085 0.651960784,18.9379085 L18.3480392,18.9379085 C18.6737922,18.9379085 18.9379085,18.6737922 18.9379085,18.3480392 L18.9379085,0.651960784 C18.9379085,0.32620776 18.6737922,0.0620915033 18.3480392,0.0620915033 Z M17.7581699,17.7581699 L1.24183007,17.7581699 L1.24183007,1.24183007 L17.7581699,1.24183007 L17.7581699,17.7581699 Z" id="Shape" fill="url(#linearGradient-1)"></path>
                    <path d="M3.01143791,3.01143791 L4.78104575,3.01143791 L4.78104575,1.83169935 L2.42156863,1.83169935 C2.0958156,1.83169935 1.83169935,2.0958156 1.83169935,2.42156863 L1.83169935,4.78104575 L3.01143791,4.78104575 L3.01143791,3.01143791 Z" id="Path" fill="url(#linearGradient-1)"></path>
                    <path d="M15.9885621,4.78104575 L17.1683007,4.78104575 L17.1683007,2.42156863 C17.1683007,2.0958156 16.9041844,1.83169935 16.5784314,1.83169935 L14.2189542,1.83169935 L14.2189542,3.01143791 L15.9885621,3.01143791 L15.9885621,4.78104575 Z" id="Path" fill="url(#linearGradient-1)"></path>
                    <path d="M2.42156863,17.1683007 L4.78104575,17.1683007 L4.78104575,15.9885621 L3.01143791,15.9885621 L3.01143791,14.2189542 L1.83169935,14.2189542 L1.83169935,16.5784314 C1.83169935,16.9041844 2.0958156,17.1683007 2.42156863,17.1683007 Z" id="Path" fill="url(#linearGradient-1)"></path>
                    <path d="M15.9885621,15.9885621 L14.2189542,15.9885621 L14.2189542,17.1683007 L16.5784314,17.1683007 C16.9041844,17.1683007 17.1683007,16.9041844 17.1683007,16.5784314 L17.1683007,14.2189542 L15.9885621,14.2189542 L15.9885621,15.9885621 Z" id="Path" fill="url(#linearGradient-1)"></path>
                    <polygon id="Path" fill="url(#linearGradient-2)" points="1.83169935 8.91013072 17.1683007 8.91013072 17.1683007 10.0898693 1.83169935 10.0898693"></polygon>
                </g>
            </g>
        </g>
    </g>
</svg>