<?xml version="1.0" encoding="UTF-8"?>
<svg width="40px" height="40px" viewBox="0 0 40 40" version="1.1" xmlns="http://www.w3.org/2000/svg" xmlns:xlink="http://www.w3.org/1999/xlink">
    <!-- Generator: Sketch 53 (72520) - https://sketchapp.com -->
    <title>sedekah</title>
    <desc>Created with Sketch.</desc>
    <defs>
        <linearGradient x1="0%" y1="0%" x2="100%" y2="100%" id="linearGradient-1">
            <stop stop-color="#CE9FFC" offset="0%"></stop>
            <stop stop-color="#7367F0" offset="100%"></stop>
        </linearGradient>
    </defs>
    <g id="Page-1" stroke="none" stroke-width="1" fill="none" fill-rule="evenodd">
        <g id="Desktop" transform="translate(-322.000000, -696.000000)">
            <g id="sedekah" transform="translate(322.000000, 696.000000)">
                <rect id="Rectangle-Copy-2" fill="url(#linearGradient-1)" x="0" y="0" width="40" height="40" rx="5"></rect>
                <g id="cash" transform="translate(11.000000, 12.000000)" fill="#FFFFFF" fill-rule="nonzero">
                    <path d="M7.1000083,11.0490913 L10.1944066,11.9872656 C10.1904647,12.0069751 10.1825809,12.0306266 10.1746971,12.0503361 C10.091917,12.2750249 9.92241494,12.401166 9.64648133,12.444527 C8.62946888,12.6061452 6.94233195,12.5036556 6.92656432,12.5036556 C6.66639834,12.487888 6.44170954,12.6849834 6.42594191,12.9451494 C6.41017427,13.2053154 6.60726971,13.4300041 6.86743568,13.4457718 C6.94233195,13.4497137 8.67282988,13.5561452 9.79627386,13.3748174 C10.911834,13.1974315 11.2311286,12.2158963 11.172,11.5970166 C11.1522905,11.4038631 11.0222075,11.2422448 10.8369378,11.1870581 L7.372,10.1385104 C5.66121162,9.62212033 3.78486307,10.5760622 3.7060249,10.6154813 C3.69814108,10.6194232 3.68631535,10.6233651 3.67843154,10.631249 L0.229261411,12.7165187 C0.00457261411,12.8505436 -0.0663817427,13.1422448 0.0676431535,13.3669336 C0.158307054,13.5127842 0.312041494,13.5955643 0.473659751,13.5955643 C0.556439834,13.5955643 0.639219917,13.5719129 0.718058091,13.5285519 L4.15146058,11.4590498 C4.30125311,11.3802116 5.81100415,10.6588423 7.1000083,11.0490913 Z" id="Path"></path>
                    <path d="M18.9099668,10.2567676 C18.6379751,9.76008714 17.7904647,8.96776349 16.5054025,9.53539834 C15.2912946,10.0754398 12.725112,11.3092573 12.6975187,11.321083 C12.4610041,11.4353983 12.3624564,11.7152739 12.4767718,11.9517884 C12.5910871,12.1883029 12.8749046,12.2868506 13.1074772,12.1725353 C13.1350705,12.1607095 15.6854855,10.930834 16.8877676,10.3986763 C17.2307137,10.2449419 17.518473,10.2449419 17.7668133,10.3986763 C17.7746971,10.4026183 17.778639,10.4065602 17.7865228,10.4105021 L11.3572697,15.121083 C10.9000083,15.4561452 10.3205477,15.594112 9.76473859,15.50739 L4.02926141,14.5928672 C3.89523651,14.5731577 3.75726971,14.6086349 3.65083817,14.6953568 L2.20021577,15.9055228 C1.99917842,16.071083 1.97158506,16.370668 2.14108714,16.5717054 C2.23569295,16.6820788 2.36971784,16.7412075 2.50374274,16.7412075 C2.61017427,16.7412075 2.71660581,16.7057303 2.80726971,16.630834 L4.09233195,15.5586349 L9.61888797,16.4416224 C10.4230373,16.5717054 11.2626639,16.3667261 11.9209627,15.8858133 L18.7798838,10.8638216 C18.9651535,10.7219129 19.0242822,10.4656888 18.9099668,10.2567676 Z" id="Path"></path>
                    <path d="M10.1471037,9.71278423 C10.8842407,9.71278423 11.5740747,9.4250249 12.0983485,8.90469295 C13.1744896,7.82855187 13.1744896,6.08228631 12.0983485,5.00614523 C11.5780166,4.48581328 10.8842407,4.19805394 10.1471037,4.19805394 C9.4099668,4.19805394 8.72013278,4.48581328 8.19585892,5.00614523 C7.11971784,6.08228631 7.11971784,7.82855187 8.19585892,8.90469295 C8.72013278,9.4250249 9.4099668,9.71278423 10.1471037,9.71278423 Z M8.8659834,5.67626971 C9.20892946,5.33332365 9.66224896,5.14411203 10.1471037,5.14411203 C10.6319585,5.14411203 11.085278,5.33332365 11.4282241,5.67626971 C12.1338257,6.38187137 12.1338257,7.53290871 11.4282241,8.23851037 C11.085278,8.58145643 10.6319585,8.77066805 10.1471037,8.77066805 C9.66224896,8.77066805 9.20892946,8.58145643 8.8659834,8.23851037 C8.16038174,7.53290871 8.16038174,6.38187137 8.8659834,5.67626971 Z" id="Shape"></path>
                    <path d="M13.3834108,4.32419502 C13.9589295,4.32419502 14.498971,4.09950622 14.9049876,3.69348963 C15.7446141,2.85386307 15.7446141,1.48996266 14.9049876,0.6503361 C14.498971,0.244319502 13.9589295,0.0196307054 13.3834108,0.0196307054 C12.8078921,0.0196307054 12.2678506,0.244319502 11.861834,0.6503361 C11.0222075,1.48996266 11.0222075,2.85386307 11.861834,3.69348963 C12.2678506,4.10344813 12.811834,4.32419502 13.3834108,4.32419502 Z M12.5319585,1.32046058 C12.7605892,1.09182988 13.0641162,0.965688797 13.3873527,0.965688797 C13.7105892,0.965688797 14.0141162,1.09182988 14.2427469,1.32046058 C14.711834,1.78954772 14.711834,2.55821992 14.2427469,3.02730705 C14.0141162,3.25593776 13.7105892,3.38207884 13.3873527,3.38207884 C13.0641162,3.38207884 12.7605892,3.25593776 12.5319585,3.02730705 C12.0628714,2.55427801 12.0628714,1.78954772 12.5319585,1.32046058 Z" id="Shape"></path>
                </g>
            </g>
        </g>
    </g>
</svg>