<?xml version="1.0" encoding="UTF-8"?>
<svg width="40px" height="40px" viewBox="0 0 40 40" version="1.1" xmlns="http://www.w3.org/2000/svg" xmlns:xlink="http://www.w3.org/1999/xlink">
    <!-- Generator: Sketch 53 (72520) - https://sketchapp.com -->
    <title>tagihan merchant</title>
    <desc>Created with Sketch.</desc>
    <defs>
        <linearGradient x1="0%" y1="0%" x2="100%" y2="100%" id="linearGradient-1">
            <stop stop-color="#90F7EC" offset="0%"></stop>
            <stop stop-color="#32CCBC" offset="100%"></stop>
        </linearGradient>
    </defs>
    <g id="Page-1" stroke="none" stroke-width="1" fill="none" fill-rule="evenodd">
        <g id="Desktop" transform="translate(-388.000000, -696.000000)">
            <g id="tagihan-merchant" transform="translate(388.000000, 696.000000)">
                <rect id="Rectangle-Copy-3" fill="url(#linearGradient-1)" x="0" y="0" width="40" height="40" rx="5"></rect>
                <g id="bill" transform="translate(10.000000, 9.000000)" fill="#FFFFFF" fill-rule="nonzero">
                    <path d="M18.5849039,10.2052817 L15.5145371,10.2052817 L15.5145371,0.414888646 C15.5145371,0.247124454 15.4134389,0.0958296943 15.258452,0.0316113537 C15.1033821,-0.0326484716 14.9249563,0.00294541485 14.8063515,0.121508734 L13.631131,1.29668777 L12.4559934,0.121550218 C12.2939956,-0.0404475983 12.0313144,-0.0404475983 11.8692751,0.121550218 L10.6940961,1.29672926 L9.51904148,0.121550218 C9.35704367,-0.0404475983 9.09436245,-0.0404475983 8.93232314,0.121550218 L7.7571441,1.29672926 L6.58192358,0.121550218 C6.41992576,-0.0404475983 6.15724454,-0.0404475983 5.99524672,0.121550218 L4.82006769,1.29672926 L3.64497162,0.121550218 C3.4829738,-0.0404475983 3.22029258,-0.0404475983 3.05825328,0.121550218 L1.88307424,1.29672926 L0.707936681,0.121550218 C0.546934498,-0.0394519651 0.286534934,-0.0402816594 0.124122271,0.119268559 C0.0388296943,0.20310917 -0.00253056769,0.314827511 0.000331877729,0.425799127 L0.000331877729,19.0830524 C0.000331877729,20.2725022 0.968004367,21.2401747 2.15745415,21.2401747 L16.842048,21.2401747 C16.842131,21.2401747 16.8421725,21.2401747 16.8422555,21.2401747 C16.8423799,21.2401747 16.8425044,21.2401747 16.8426288,21.2401747 C18.0320786,21.2401747 18.9997511,20.2725022 18.9997511,19.0830524 L18.9997511,10.6200873 C18.9997511,10.3909672 18.814024,10.2052817 18.5849039,10.2052817 Z M2.15745415,20.4104803 C1.42545633,20.4104803 0.829984716,19.8149672 0.829984716,19.0830109 L0.829984716,1.41695197 L1.58973581,2.17670306 C1.75173362,2.33870087 2.01441485,2.33870087 2.17645415,2.17670306 L3.35163319,1.00152402 L4.52681223,2.17670306 C4.68881004,2.33870087 4.95149127,2.33870087 5.11353057,2.17670306 L6.28870961,1.00152402 L7.46393013,2.17670306 C7.62592795,2.33870087 7.88860917,2.33870087 8.05060699,2.17670306 L9.22578603,1.00152402 L10.4009651,2.17670306 C10.5629629,2.33870087 10.8256441,2.33870087 10.9876834,2.17670306 L12.1628624,1.00152402 L13.3380415,2.17670306 C13.5000808,2.33870087 13.762762,2.33870087 13.9247183,2.17670306 L14.6850917,1.41637118 L14.6850917,10.6200873 C14.6850917,10.6238624 14.685548,10.6275546 14.6856725,10.6313297 L14.6856725,19.0830109 C14.6856725,19.5833996 14.8574192,20.0441288 15.144369,20.4104803 L2.15745415,20.4104803 Z M18.1700568,19.0830109 C18.1700568,19.8149672 17.5745437,20.4104803 16.8425873,20.4104803 C16.110631,20.4104803 15.5151179,19.8149672 15.5151179,19.0830109 L15.5151179,11.0349345 L18.1700568,11.0349345 L18.1700568,19.0830109 L18.1700568,19.0830109 Z" id="Shape"></path>
                    <path d="M7.7574345,6.59005459 C7.34569869,6.59005459 7.01075109,6.30322926 7.01075109,5.95073362 C7.01075109,5.59819651 7.34574017,5.31137118 7.7574345,5.31137118 C8.16917031,5.31137118 8.5041179,5.59819651 8.5041179,5.95073362 C8.5041179,6.17985371 8.68984498,6.36558079 8.91896507,6.36558079 C9.14808515,6.36558079 9.33381223,6.17985371 9.33381223,5.95073362 C9.33381223,5.27449127 8.84080786,4.70391048 8.17228166,4.53374017 L8.17228166,4.25272271 C8.17228166,4.02360262 7.98655459,3.83787555 7.7574345,3.83787555 C7.52831441,3.83787555 7.34258734,4.02360262 7.34258734,4.25272271 L7.34258734,4.53374017 C6.67401965,4.70391048 6.18105677,5.27453275 6.18105677,5.95073362 C6.18105677,6.76072271 6.88824672,7.41970742 7.7574345,7.41970742 C8.16917031,7.41970742 8.5041179,7.70653275 8.5041179,8.05906987 C8.5041179,8.41160699 8.16917031,8.69839083 7.7574345,8.69839083 C7.34569869,8.69839083 7.01075109,8.4115655 7.01075109,8.05906987 C7.01075109,7.82994978 6.82502402,7.64422271 6.59590393,7.64422271 C6.36678384,7.64422271 6.18105677,7.82994978 6.18105677,8.05906987 C6.18105677,8.73531223 6.67406114,9.30589301 7.34258734,9.47606332 L7.34258734,9.8145786 C7.34258734,10.0436987 7.52831441,10.2294258 7.7574345,10.2294258 C7.98655459,10.2294258 8.17228166,10.0436987 8.17228166,9.8145786 L8.17228166,9.47606332 C8.84084934,9.30589301 9.33381223,8.73531223 9.33381223,8.05906987 C9.33381223,7.24908079 8.62662227,6.59005459 7.7574345,6.59005459 Z" id="Path"></path>
                    <path d="M11.925238,6.59009607 L11.1167009,6.59009607 C10.8875808,6.59009607 10.7018537,6.77582314 10.7018537,7.00494323 C10.7018537,7.23406332 10.8875808,7.41979039 11.1167009,7.41979039 L11.925238,7.41979039 C12.1543581,7.41979039 12.3400852,7.23406332 12.3400852,7.00494323 C12.3400852,6.77582314 12.1543581,6.59009607 11.925238,6.59009607 Z" id="Path"></path>
                    <path d="M4.39820961,6.59009607 L3.58967249,6.59009607 C3.3605524,6.59009607 3.17482533,6.77582314 3.17482533,7.00494323 C3.17482533,7.23406332 3.3605524,7.41979039 3.58967249,7.41979039 L4.39820961,7.41979039 C4.62732969,7.41979039 4.81305677,7.23406332 4.81305677,7.00494323 C4.81305677,6.77582314 4.62732969,6.59009607 4.39820961,6.59009607 Z" id="Path"></path>
                    <path d="M12.1351092,11.2011638 L5.56297598,11.2011638 C5.3338559,11.2011638 5.14812882,11.3868908 5.14812882,11.6160109 C5.14812882,11.845131 5.3338559,12.0308581 5.56297598,12.0308581 L12.1351092,12.0308581 C12.3642293,12.0308581 12.5499563,11.845131 12.5499563,11.6160109 C12.5499148,11.3868908 12.3642293,11.2011638 12.1351092,11.2011638 Z" id="Path"></path>
                    <path d="M3.6729738,11.322714 C3.59581223,11.2455524 3.48878166,11.2011638 3.37967686,11.2011638 C3.27057205,11.2011638 3.16354148,11.2455524 3.08637991,11.322714 C3.00921834,11.3998755 2.96482969,11.5069061 2.96482969,11.6160109 C2.96482969,11.7251157 3.00921834,11.8321463 3.08637991,11.9093079 C3.16354148,11.9864694 3.27057205,12.0308581 3.37967686,12.0308581 C3.48878166,12.0308581 3.59581223,11.9864694 3.6729738,11.9093079 C3.75013537,11.8321463 3.79452402,11.7251157 3.79452402,11.6160109 C3.79452402,11.5069061 3.75013537,11.3998755 3.6729738,11.322714 Z" id="Path"></path>
                    <path d="M12.1351092,13.9390721 L5.56297598,13.9390721 C5.3338559,13.9390721 5.14812882,14.1247991 5.14812882,14.3539192 C5.14812882,14.5830393 5.3338559,14.7687664 5.56297598,14.7687664 L12.1351092,14.7687664 C12.3642293,14.7687664 12.5499563,14.5830393 12.5499563,14.3539192 C12.5499148,14.1247991 12.3642293,13.9390721 12.1351092,13.9390721 Z" id="Path"></path>
                    <path d="M3.6729738,14.0606223 C3.59581223,13.9834607 3.48878166,13.9390721 3.37967686,13.9390721 C3.27057205,13.9390721 3.16354148,13.9834607 3.08637991,14.0606223 C3.00921834,14.1377838 2.96482969,14.2448144 2.96482969,14.3539192 C2.96482969,14.463024 3.00921834,14.5700546 3.08637991,14.6472162 C3.16354148,14.7243777 3.27057205,14.7687664 3.37967686,14.7687664 C3.48878166,14.7687664 3.59581223,14.7243777 3.6729738,14.6472162 C3.75013537,14.5700546 3.79452402,14.463024 3.79452402,14.3539192 C3.79452402,14.2448144 3.75013537,14.1377838 3.6729738,14.0606223 Z" id="Path"></path>
                    <path d="M12.1351092,16.6769803 L5.56297598,16.6769803 C5.3338559,16.6769803 5.14812882,16.8627074 5.14812882,17.0918275 C5.14812882,17.3209476 5.3338559,17.5066747 5.56297598,17.5066747 L12.1351092,17.5066747 C12.3642293,17.5066747 12.5499563,17.3209476 12.5499563,17.0918275 C12.5499563,16.8627074 12.3642293,16.6769803 12.1351092,16.6769803 Z" id="Path"></path>
                    <path d="M3.6729738,16.7985306 C3.59581223,16.721369 3.48878166,16.6769803 3.37967686,16.6769803 C3.27057205,16.6769803 3.16354148,16.721369 3.08637991,16.7985306 C3.00921834,16.8756921 2.96482969,16.9827227 2.96482969,17.0918275 C2.96482969,17.2009323 3.00921834,17.3079629 3.08637991,17.3851245 C3.16354148,17.462286 3.27057205,17.5066747 3.37967686,17.5066747 C3.48878166,17.5066747 3.59581223,17.462286 3.6729738,17.3851245 C3.75013537,17.3079629 3.79452402,17.2009323 3.79452402,17.0918275 C3.79452402,16.9827227 3.75013537,16.8756921 3.6729738,16.7985306 Z" id="Path"></path>
                </g>
            </g>
        </g>
    </g>
</svg>