<?xml version="1.0" encoding="UTF-8"?>
<svg width="40px" height="40px" viewBox="0 0 40 40" version="1.1" xmlns="http://www.w3.org/2000/svg" xmlns:xlink="http://www.w3.org/1999/xlink">
    <!-- Generator: Sketch 53 (72520) - https://sketchapp.com -->
    <title>telkom</title>
    <desc>Created with Sketch.</desc>
    <defs>
        <linearGradient x1="0%" y1="0%" x2="100%" y2="100%" id="linearGradient-1">
            <stop stop-color="#E2B0FF" offset="0%"></stop>
            <stop stop-color="#9F44D3" offset="100%"></stop>
        </linearGradient>
        <rect id="path-2" x="0" y="0" width="20" height="20"></rect>
    </defs>
    <g id="Page-1" stroke="none" stroke-width="1" fill="none" fill-rule="evenodd">
        <g id="Desktop" transform="translate(-188.000000, -617.000000)">
            <g id="telkom" transform="translate(188.000000, 617.000000)">
                <g id="Group_3015" fill-rule="nonzero">
                    <g id="Group" transform="translate(14.166667, 26.666667)" fill="#FFA331">
                        <circle id="Ellipse_34-2" cx="6.25" cy="6.25" r="6.25"></circle>
                    </g>
                    <rect id="Rectangle_123" fill="url(#linearGradient-1)" x="0" y="0" width="40" height="40" rx="5"></rect>
                </g>
                <g id="Mask_Group_59-Clipped" transform="translate(10.000000, 8.333333)">
                    <mask id="mask-3" fill="white">
                        <use xlink:href="#path-2"></use>
                    </mask>
                    <g id="Rectangle_159"></g>
                    <g id="Mask_Group_59" mask="url(#mask-3)">
                        <g transform="translate(0.000000, 1.666667)" id="telephone-of-old-design">
                            <g>
                                <path d="M16.98,10.3625 C15.6333333,10.0466667 13.9116667,9.2225 13.2883333,8.19583333 C12.9423865,7.66930025 12.9030141,6.99838289 13.185,6.435 C13.2008333,6.40583333 13.2275,6.36083333 13.2483333,6.32583333 C13.2386615,6.15668703 13.2728191,5.98790826 13.3475,5.83583333 L13.3591667,5.81 L6.4425,5.81 L6.44666667,5.83333333 L6.44666667,5.83333333 C6.60166667,6.075 6.7375,6.29166667 6.81,6.43166667 C7.09550638,6.99634632 7.0580205,7.67045678 6.71166667,8.2 C6.08666667,9.225 4.365,10.0483333 3.0175,10.3666667 L2.645,16.6091667 C2.60164513,16.9087389 2.68471625,17.2128567 2.87434632,17.4487881 C3.06397639,17.6847195 3.34311346,17.8312491 3.645,17.8533333 L16.3558333,17.8533333 C16.6578177,17.8314912 16.9371106,17.685026 17.1267908,17.4490323 C17.3164709,17.2130385 17.3994456,16.9087824 17.3558333,16.6091667 L16.98,10.3625 Z M7.92166667,14.6616667 L6.7275,14.6616667 C6.50750657,14.6616667 6.32916667,14.4833268 6.32916667,14.2633333 C6.32916667,14.0433399 6.50750657,13.865 6.7275,13.865 L7.92166667,13.865 C8.14166009,13.865 8.32,14.0433399 8.32,14.2633333 C8.32,14.4833268 8.14166009,14.6616667 7.92166667,14.6616667 L7.92166667,14.6616667 Z M7.92166667,13.1433333 L6.7275,13.1433333 C6.58099384,13.1500396 6.44265324,13.075698 6.36739544,12.9498199 C6.29213764,12.8239418 6.29213764,12.6668915 6.36739544,12.5410134 C6.44265324,12.4151353 6.58099384,12.3407937 6.7275,12.3475 L7.92166667,12.3475 C8.06817283,12.3407937 8.20651342,12.4151353 8.28177123,12.5410134 C8.35702903,12.6668915 8.35702903,12.8239418 8.28177123,12.9498199 C8.20651342,13.075698 8.06817283,13.1500396 7.92166667,13.1433333 L7.92166667,13.1433333 Z M7.92166667,11.625 L6.7275,11.625 C6.50750657,11.625 6.32916667,11.4466601 6.32916667,11.2266667 C6.32916667,11.0066732 6.50750657,10.8283333 6.7275,10.8283333 L7.92166667,10.8283333 C8.14166009,10.8283333 8.32,11.0066732 8.32,11.2266667 C8.32,11.4466601 8.14166009,11.625 7.92166667,11.625 L7.92166667,11.625 Z M10.5966667,14.6608333 L9.40333333,14.6608333 C9.18333991,14.6608333 9.005,14.4824934 9.005,14.2625 C9.005,14.0425066 9.18333991,13.8641667 9.40333333,13.8641667 L10.5975,13.8641667 C10.8174934,13.8641667 10.9958333,14.0425066 10.9958333,14.2625 C10.9958333,14.4824934 10.8174934,14.6608333 10.5975,14.6608333 L10.5966667,14.6608333 Z M10.5966667,13.1425 L9.40333333,13.1425 C9.25682717,13.1492063 9.11848658,13.0748647 9.04322877,12.9489866 C8.96797097,12.8231085 8.96797097,12.6660582 9.04322877,12.5401801 C9.11848658,12.414302 9.25682717,12.3399604 9.40333333,12.3466667 L10.5975,12.3466667 C10.7440062,12.3399604 10.8823468,12.414302 10.9576046,12.5401801 C11.0328624,12.6660582 11.0328624,12.8231085 10.9576046,12.9489866 C10.8823468,13.0748647 10.7440062,13.1492063 10.5975,13.1425 L10.5966667,13.1425 Z M10.5966667,11.6241667 L9.40333333,11.6241667 C9.18333991,11.6241667 9.005,11.4458268 9.005,11.2258333 C9.005,11.0058399 9.18333991,10.8275 9.40333333,10.8275 L10.5975,10.8275 C10.8174934,10.8275 10.9958333,11.0058399 10.9958333,11.2258333 C10.9958333,11.4458268 10.8174934,11.6241667 10.5975,11.6241667 L10.5966667,11.6241667 Z M13.2716667,14.66 L12.0775,14.66 C11.8575066,14.66 11.6791667,14.4816601 11.6791667,14.2616667 C11.6791667,14.0416732 11.8575066,13.8633333 12.0775,13.8633333 L13.2716667,13.8633333 C13.4916601,13.8633333 13.67,14.0416732 13.67,14.2616667 C13.67,14.4816601 13.4916601,14.66 13.2716667,14.66 L13.2716667,14.66 Z M13.2716667,13.1416667 L12.0775,13.1416667 C11.8648118,13.1319309 11.6973812,12.9566609 11.6973812,12.74375 C11.6973812,12.5308391 11.8648118,12.3555691 12.0775,12.3458333 L13.2716667,12.3458333 C13.4181728,12.339127 13.5565134,12.4134687 13.6317712,12.5393468 C13.707029,12.6652248 13.707029,12.8222752 13.6317712,12.9481532 C13.5565134,13.0740313 13.4181728,13.148373 13.2716667,13.1416667 L13.2716667,13.1416667 Z M13.2716667,11.6233333 L12.0775,11.6233333 C11.8575066,11.6233333 11.6791667,11.4449934 11.6791667,11.225 C11.6791667,11.0050066 11.8575066,10.8266667 12.0775,10.8266667 L13.2716667,10.8266667 C13.4916601,10.8266667 13.67,11.0050066 13.67,11.225 C13.67,11.4449934 13.4916601,11.6233333 13.2716667,11.6233333 L13.2716667,11.6233333 Z M19.8991667,6.75583333 C19.8865401,6.88271968 19.8614183,7.00804964 19.8241667,7.13 C19.4680857,7.80063402 19.0587138,8.44158381 18.6,9.04666667 C18.0875,9.865 13.7333333,8.10083333 14.2941667,7.00833333 C14.7255334,6.39067457 15.0932425,5.73091996 15.3916667,5.03916667 C15.4483333,4.63833333 14.9183333,4.325 14.4283333,4.28916667 C13.1358333,4.18416667 11.4858333,4.27916667 10.1141667,4.28916667 L9.88583333,4.28916667 C8.51416667,4.28083333 6.86416667,4.18583333 5.57166667,4.28916667 C5.08166667,4.32916667 4.55166667,4.6425 4.6075,5.03916667 C4.90619923,5.7305211 5.27389487,6.38997222 5.705,7.0075 C6.2675,8.1 1.91333333,9.86416667 1.40083333,9.04583333 C0.941645828,8.44090969 0.531984944,7.79994368 0.175833333,7.12916667 C0.13885471,7.00714759 0.113738285,6.88184453 0.100833333,6.755 C-0.538333333,3.905 1.92333333,0.9925 5.63,0.694166667 C7.04666667,0.579166667 8.46333333,0.515 9.885,0.489166667 L9.885,0.481666667 L9.99916667,0.481666667 L10.1141667,0.481666667 L10.1141667,0.488333333 C11.5308333,0.514166667 12.9525,0.578333333 14.3691667,0.693333333 C18.0758333,0.991666667 20.5375,3.905 19.8991667,6.75916667 L19.8991667,6.75583333 Z" id="Path_322" fill="#FFFFFF" fill-rule="nonzero"></path>
                            </g>
                        </g>
                    </g>
                </g>
            </g>
        </g>
    </g>
</svg>