<?xml version="1.0" encoding="UTF-8"?>
<svg width="40px" height="40px" viewBox="0 0 40 40" version="1.1" xmlns="http://www.w3.org/2000/svg" xmlns:xlink="http://www.w3.org/1999/xlink">
    <!-- Generator: Sketch 53 (72520) - https://sketchapp.com -->
    <title>top up</title>
    <desc>Created with Sketch.</desc>
    <defs>
        <linearGradient x1="0%" y1="0%" x2="100%" y2="100%" id="linearGradient-1">
            <stop stop-color="#79F1A4" offset="0%"></stop>
            <stop stop-color="#0E5CAD" offset="100%"></stop>
        </linearGradient>
    </defs>
    <g id="Page-1" stroke="none" stroke-width="1" fill="none" fill-rule="evenodd">
        <g id="Desktop" transform="translate(-118.000000, -696.000000)" fill-rule="nonzero">
            <g id="top-up" transform="translate(118.000000, 696.000000)">
                <path d="M35.6803509,39.9220175 L4.24175439,39.9220175 C1.87131579,39.9220175 0,38.0507018 0,35.6803509 L0,4.24175439 C0,1.87131579 1.87131579,0 4.24175439,0 L35.6803509,0 C38.0507018,0 39.9221053,1.87131579 39.9221053,4.24175439 L39.9221053,35.6803509 C39.9220175,38.0507018 38.0507018,39.9220175 35.6803509,39.9220175 Z" id="Path" fill="url(#linearGradient-1)"></path>
                <g id="Group" transform="translate(10.000000, 9.000000)" fill="#FFFFFF">
                    <path d="M14.103051,7.35199363 L12.8076433,7.35199363 L12.8076433,12.334293 C12.8076433,12.8325159 12.409051,13.2311083 11.910828,13.2311083 L7.92497452,13.2311083 C7.42675159,13.2311083 7.02815924,12.8325159 7.02815924,12.334293 L7.02815924,7.35199363 L5.73275159,7.35199363 C5.03519745,7.35199363 4.63667516,6.55480892 5.03519745,5.95695541 L9.22038217,0.376802548 C9.61897452,-0.121420382 10.3164586,-0.121420382 10.6154204,0.376802548 L14.800535,5.95695541 C15.1991274,6.55487898 14.800535,7.35199363 14.103051,7.35199363 Z" id="Path"></path>
                    <polygon id="Path" points="3.54052866 16.4198471 3.54052866 21.9003694 1.94615924 21.9003694 1.94615924 16.4198471 0.0529681529 16.4198471 0.0529681529 15.1244395 5.43385987 15.1244395 5.43385987 16.4198471"></polygon>
                    <path d="M12.1100892,21.0035541 C11.4126051,21.7010382 10.6154204,22 9.51934395,22 C8.52289809,22 7.6260828,21.7010382 6.92852866,21.0035541 C6.23097452,20.306 5.9320828,19.5088854 5.9320828,18.5123694 C5.9320828,17.5158535 6.23104459,16.7187389 6.92852866,16.0211847 C7.62601274,15.3236306 8.42319745,15.0247389 9.51934395,15.0247389 C10.5157898,15.0247389 11.4126051,15.3237006 12.1101592,16.0211847 C12.8077134,16.7186688 13.1066051,17.5158535 13.1066051,18.5123694 C13.1066051,19.5088854 12.8076433,20.306 12.1100892,21.0035541 Z M11.5122357,18.5123694 C11.5122357,17.9145159 11.3129745,17.416293 10.9143822,16.918 C10.5157898,16.5194076 10.0175669,16.3201465 9.51934395,16.3201465 C8.92149045,16.3201465 8.42326752,16.5194076 8.12430573,16.918 C7.72571338,17.3165924 7.52645223,17.8148153 7.52645223,18.5123694 C7.52645223,19.1102229 7.72571338,19.6084459 8.12430573,20.1067389 C8.52289809,20.5053312 9.02112102,20.7045924 9.51934395,20.7045924 C10.1171975,20.7045924 10.6154204,20.5053312 10.9143822,20.1067389 C11.3129745,19.6085159 11.5122357,19.110293 11.5122357,18.5123694 Z" id="Shape"></path>
                    <path d="M19.0853503,15.722293 C19.5835732,16.1208854 19.7829045,16.7187389 19.7829045,17.6155541 C19.7829045,18.4127389 19.5836433,19.1102229 19.0853503,19.5088153 C18.5871274,19.9074076 17.8895732,20.1066688 16.7934968,20.1066688 L15.8966815,20.1066688 L15.8966815,22 L14.4020127,22 L14.4020127,15.2240701 L16.7934968,15.2240701 C17.8895732,15.1244395 18.5871274,15.3237006 19.0853503,15.722293 Z M17.9892739,18.4127389 C18.188535,18.2134777 18.2882357,17.9145159 18.2882357,17.5159236 C18.2882357,17.1173312 18.1886051,16.8183694 17.8896433,16.7187389 C17.6903822,16.5194777 17.2917898,16.5194777 16.7935669,16.5194777 L15.8967516,16.5194777 L15.8967516,18.8113312 L16.8931975,18.8113312 C17.3913503,18.7117006 17.7899427,18.612 17.9892739,18.4127389 Z" id="Shape"></path>
                </g>
            </g>
        </g>
    </g>
</svg>