<?xml version="1.0" encoding="UTF-8"?>
<svg width="40px" height="40px" viewBox="0 0 40 40" version="1.1" xmlns="http://www.w3.org/2000/svg" xmlns:xlink="http://www.w3.org/1999/xlink">
    <!-- Generator: Sketch 53 (72520) - https://sketchapp.com -->
    <title>transfer saldo</title>
    <desc>Created with Sketch.</desc>
    <defs>
        <linearGradient x1="0%" y1="0%" x2="100%" y2="100%" id="linearGradient-1">
            <stop stop-color="#79F1A4" offset="0%"></stop>
            <stop stop-color="#0E5CAD" offset="100%"></stop>
        </linearGradient>
    </defs>
    <g id="Page-1" stroke="none" stroke-width="1" fill="none" fill-rule="evenodd">
        <g id="Desktop" transform="translate(-187.000000, -696.000000)">
            <g id="transfer-saldo" transform="translate(187.000000, 696.000000)">
                <rect id="Rectangle" fill="url(#linearGradient-1)" x="0" y="0" width="40" height="40" rx="5"></rect>
                <g id="transfer" transform="translate(8.000000, 11.000000)" fill="#FFFFFF" fill-rule="nonzero">
                    <path d="M23.8946729,6.29940957 L17.8577766,0.262513298 C17.5209309,-0.074231383 16.974883,-0.0741303191 16.6381383,0.262715426 C16.4764867,0.424417553 16.3856809,0.643625 16.3856303,0.872281915 L16.3856303,3.45951596 L10.348734,3.45951596 C9.87242021,3.45951596 9.48630585,3.84563032 9.48630585,4.32194415 C9.48630585,4.79825798 9.87242021,5.18437234 10.348734,5.18437234 L17.2480585,5.18437234 C17.7243723,5.18437234 18.1104867,4.79825798 18.1104867,4.32194415 L18.1104867,2.95409574 L22.0655186,6.90912766 L18.1104867,10.8641596 L18.1104867,9.4963617 C18.1104867,9.02004787 17.7243723,8.63393351 17.2480585,8.63393351 L7.7615,8.63393351 L7.7615,6.04669947 C7.76139894,5.57038564 7.37518351,5.18437234 6.89892021,5.1844734 C6.67031383,5.18452394 6.45105585,5.27532979 6.28935372,5.43698138 L0.252507979,11.4738777 C-0.0841861702,11.8106729 -0.0841861702,12.3565691 0.252507979,12.6933138 L6.28940426,18.7302101 C6.45110638,18.8919628 6.67041489,18.9828697 6.89912234,18.9829202 C7.01246543,18.9832739 7.12479787,18.9609894 7.22939894,18.9173803 C7.55159043,18.7837739 7.76160106,18.4693138 7.7615,18.120492 L7.7615,15.533258 L13.7983963,15.533258 C14.2747101,15.533258 14.6608245,15.1471436 14.6608245,14.6708298 C14.6608245,14.194516 14.2747101,13.8084016 13.7983963,13.8084016 L6.89912234,13.8084016 C6.42280851,13.8084016 6.03669415,14.194516 6.03669415,14.6708298 L6.03669415,16.0386277 L2.08166223,12.0835957 L6.03669415,8.12856383 L6.03669415,9.4963617 C6.03669415,9.97267553 6.42280851,10.3587899 6.89912234,10.3587899 L16.3856303,10.3587899 L16.3856303,12.9460239 C16.3857314,13.4223378 16.7719468,13.8083511 17.2482101,13.80825 C17.4768165,13.8081995 17.6960745,13.7173936 17.8577766,13.555742 L23.8946729,7.51884574 C24.2313165,7.18205053 24.2313165,6.63615426 23.8946729,6.29940957 Z" id="Path"></path>
                </g>
            </g>
        </g>
    </g>
</svg>