<?xml version="1.0" encoding="UTF-8"?>
<svg width="40px" height="40px" viewBox="0 0 40 40" version="1.1" xmlns="http://www.w3.org/2000/svg" xmlns:xlink="http://www.w3.org/1999/xlink">
    <!-- Generator: Sketch 53 (72520) - https://sketchapp.com -->
    <title>transport</title>
    <desc>Created with Sketch.</desc>
    <defs>
        <linearGradient x1="0%" y1="0%" x2="100%" y2="100%" id="linearGradient-1">
            <stop stop-color="#F6CEEC" offset="0%"></stop>
            <stop stop-color="#D939CD" offset="100%"></stop>
        </linearGradient>
    </defs>
    <g id="Page-1" stroke="none" stroke-width="1" fill="none" fill-rule="evenodd">
        <g id="Desktop" transform="translate(-188.000000, -767.000000)">
            <g id="transport" transform="translate(188.000000, 767.000000)">
                <rect id="Rectangle-Copy-8" fill="url(#linearGradient-1)" x="0" y="0" width="40" height="40" rx="5"></rect>
                <g id="sports-car" transform="translate(8.000000, 12.000000)" fill="#FFFFFF" fill-rule="nonzero">
                    <path d="M22.763,5.42827586 C22.6510345,5.29168966 22.4839655,5.21196552 22.3086897,5.21196552 L20.0805172,5.21196552 C19.5306552,3.76168966 18.8143103,2.34072414 18.000069,1.80434483 C15.1833448,-0.0486551724 7.71213793,-0.0486551724 4.89541379,1.80434483 C4.08058621,2.34131034 3.36717241,3.76403448 2.81437931,5.21196552 L0.586206897,5.21196552 C0.409172414,5.21196552 0.242689655,5.29168966 0.131896552,5.42827586 C0.0205172414,5.56427586 -0.0240344828,5.74424138 0.0123103448,5.91717241 L0.342344828,7.51634483 C0.39862069,7.78893103 0.638965517,7.98355172 0.916241379,7.98355172 L1.57631034,7.98355172 C0.939103448,8.71865517 0.630172414,9.64427586 0.626068966,10.5704828 C0.621965517,11.7147586 1.05634483,12.7488276 1.85065517,13.4804138 C1.85944828,13.4880345 1.86824138,13.4933103 1.87644828,13.500931 L1.87644828,15.7384828 C1.87644828,16.2232759 2.27037931,16.6177931 2.75575862,16.6177931 L4.811,16.6177931 C5.29637931,16.6177931 5.69031034,16.2232759 5.69031034,15.7384828 L5.69031034,14.8392414 L17.204,14.8392414 L17.204,15.7384828 C17.204,16.2232759 17.597931,16.6177931 18.0833103,16.6177931 L20.1385517,16.6177931 C20.6227586,16.6177931 21.0178621,16.2232759 21.0178621,15.7384828 L21.0178621,13.5448966 C21.8608276,12.7728621 22.2635517,11.7106552 22.2688276,10.6502069 C22.2723448,9.69234483 21.9493448,8.73272414 21.2746207,7.98237931 L21.9786552,7.98237931 C22.2571034,7.98237931 22.4974483,7.78775862 22.5525517,7.51458621 L22.8831724,5.916 C22.9171724,5.74424138 22.8743793,5.56544828 22.763,5.42827586 Z M5.86089655,3.2727931 C8.10606897,1.79496552 14.7882414,1.79496552 17.0322414,3.2727931 C17.4683793,3.55886207 18.0293793,4.71544828 18.5434828,6.13172414 L4.35082759,6.13172414 C4.86375862,4.71603448 5.42475862,3.56003448 5.86089655,3.2727931 Z M3.23117241,10.7908966 C3.23117241,9.83537931 4.00613793,9.06158621 4.96106897,9.06158621 C5.91717241,9.06158621 6.69096552,9.83537931 6.69096552,10.7908966 C6.69096552,11.7464138 5.91717241,12.5207931 4.96106897,12.5207931 C4.00613793,12.5207931 3.23117241,11.7464138 3.23117241,10.7908966 Z M17.9561034,12.5207931 C17.0011724,12.5207931 16.2262069,11.7464138 16.2262069,10.7908966 C16.2262069,9.83537931 17.0011724,9.06158621 17.9561034,9.06158621 C18.9122069,9.06158621 19.686,9.83537931 19.686,10.7908966 C19.686,11.7464138 18.9110345,12.5207931 17.9561034,12.5207931 Z" id="Shape"></path>
                </g>
            </g>
        </g>
    </g>
</svg>