<?xml version="1.0" encoding="UTF-8"?>
<svg width="40px" height="40px" viewBox="0 0 40 40" version="1.1" xmlns="http://www.w3.org/2000/svg" xmlns:xlink="http://www.w3.org/1999/xlink">
    <!-- Generator: Sketch 53 (72520) - https://sketchapp.com -->
    <title>tv</title>
    <desc>Created with Sketch.</desc>
    <defs>
        <linearGradient x1="0%" y1="0%" x2="129.139168%" y2="146.580722%" id="linearGradient-1">
            <stop stop-color="#FFE985" offset="0%"></stop>
            <stop stop-color="#FDB85F" offset="24.4432338%"></stop>
            <stop stop-color="#FB9645" offset="55.1179787%"></stop>
            <stop stop-color="#FA742B" offset="100%"></stop>
        </linearGradient>
        <rect id="path-2" x="0" y="0" width="20" height="20"></rect>
    </defs>
    <g id="Page-1" stroke="none" stroke-width="1" fill="none" fill-rule="evenodd">
        <g id="Desktop" transform="translate(-508.000000, -617.000000)">
            <g id="tv" transform="translate(508.000000, 617.000000)">
                <g id="Group_3019" fill-rule="nonzero">
                    <g id="Group" transform="translate(14.166667, 26.666667)" fill="#FA6B9D">
                        <circle id="Ellipse_34-2" cx="6.25" cy="6.25" r="6.25"></circle>
                    </g>
                    <rect id="Rectangle_123" fill="url(#linearGradient-1)" x="0" y="0" width="40" height="40" rx="5"></rect>
                </g>
                <g id="Mask_Group_64-Clipped" transform="translate(10.000000, 10.000000)">
                    <mask id="mask-3" fill="white">
                        <use xlink:href="#path-2"></use>
                    </mask>
                    <g id="Rectangle_164"></g>
                    <g id="Mask_Group_64" mask="url(#mask-3)">
                        <g transform="translate(0.833333, -1.666667)" id="tv">
                            <g>
                                <path d="M13.4641667,7.22083333 L11.1233333,7.22083333 C11.0693861,6.69071079 10.7023688,6.24483561 10.1925,6.09 L11.6308333,3.875 C11.9170808,3.92218707 12.1971694,3.76208352 12.3017644,3.49148399 C12.4063595,3.22088446 12.3067674,2.91402265 12.0631991,2.75641963 C11.8196308,2.59881661 11.4989044,2.63370769 11.2949233,2.83999859 C11.0909422,3.04628949 11.0596645,3.36738832 11.22,3.60916667 L9.70333333,5.9425 C9.34851254,5.87443464 8.98398746,5.87443464 8.62916667,5.9425 L5.9025,1.745 C6.05721444,1.50719818 6.02450957,1.19358338 5.82405993,0.992819324 C5.62361029,0.792055273 5.31004713,0.758858925 5.07200312,0.913200469 C4.8339591,1.06754201 4.73631161,1.36735665 4.8378032,1.63228253 C4.93929479,1.89720841 5.21226459,2.05504168 5.4925,2.01083333 L8.14166667,6.09416667 C7.6327603,6.24813644 7.26566393,6.69206693 7.21,7.22083333 L4.86916667,7.22083333 C2.60894133,7.22083333 0.776666667,9.05310799 0.776666667,11.3133333 L0.776666667,15.8133333 C0.776773354,17.6792979 2.03855755,19.3091311 3.845,19.7766667 C3.82666667,20.1125 3.8175,20.8333333 4.08333333,20.8333333 C4.32,20.8333333 4.71166667,20.2691667 4.93833333,19.9083333 L13.3933333,19.9083333 C13.62,20.2691667 14.0116667,20.8333333 14.2483333,20.8333333 C14.5158333,20.8333333 14.5066667,20.1125 14.4883333,19.7791667 C16.2947758,19.3116311 17.55656,17.6817979 17.5566667,15.8158333 L17.5566667,11.3158333 C17.55733,10.2300018 17.1264499,9.188416 16.3588854,8.42038258 C15.5913209,7.65234916 14.5499984,7.22083313 13.4641667,7.22083333 Z M12.6308333,17.5175 L3.5625,17.5175 C3.11837101,17.5175 2.75833333,17.1574623 2.75833333,16.7133333 L2.75833333,10.4216667 C2.75833333,9.97753768 3.11837101,9.6175 3.5625,9.6175 L12.6291667,9.6175 C13.0732957,9.6175 13.4333333,9.97753768 13.4333333,10.4216667 L13.4333333,16.7141667 C13.4328734,17.1579702 13.0729704,17.5175002 12.6291667,17.5175 L12.6308333,17.5175 Z M15.1458333,16.0891667 C14.6202423,16.0891667 14.1941667,15.663091 14.1941667,15.1375 C14.1941667,14.611909 14.6202423,14.1858333 15.1458333,14.1858333 C15.6714243,14.1858333 16.0975,14.611909 16.0975,15.1375 C16.0975004,15.3901867 15.997007,15.6324998 15.8181743,15.8110199 C15.6393415,15.98954 15.396853,16.0896092 15.1441667,16.0891667 L15.1458333,16.0891667 Z M15.1458333,12.4033333 C14.6202423,12.4033333 14.1941667,11.9772577 14.1941667,11.4516667 C14.1941667,10.9260757 14.6202423,10.5 15.1458333,10.5 C15.6714243,10.5 16.0975,10.9260757 16.0975,11.4516667 C16.0975004,11.7043534 15.997007,11.9466665 15.8181743,12.1251866 C15.6393415,12.3037067 15.396853,12.4037759 15.1441667,12.4033333 L15.1458333,12.4033333 Z" id="Path_335" fill="#FFFFFF" fill-rule="nonzero"></path>
                            </g>
                        </g>
                    </g>
                </g>
            </g>
        </g>
    </g>
</svg>