<?xml version="1.0" encoding="UTF-8"?>
<svg width="40px" height="40px" viewBox="0 0 40 40" version="1.1" xmlns="http://www.w3.org/2000/svg" xmlns:xlink="http://www.w3.org/1999/xlink">
    <!-- Generator: Sketch 53 (72520) - https://sketchapp.com -->
    <title>wifi</title>
    <desc>Created with Sketch.</desc>
    <defs>
        <linearGradient x1="0%" y1="0%" x2="100%" y2="100%" id="linearGradient-1">
            <stop stop-color="#F97794" offset="0%"></stop>
            <stop stop-color="#623AA2" offset="100%"></stop>
        </linearGradient>
    </defs>
    <g id="Page-1" stroke="none" stroke-width="1" fill="none" fill-rule="evenodd">
        <g id="Desktop" transform="translate(-258.000000, -767.000000)">
            <g id="wifi" transform="translate(258.000000, 767.000000)">
                <rect id="Rectangle-Copy-9" fill="url(#linearGradient-1)" x="0" y="0" width="40" height="40" rx="5"></rect>
                <g id="cloud-(2)" transform="translate(8.000000, 12.000000)" fill="#FFFFFF" fill-rule="nonzero">
                    <path d="M20.1567358,16.9844006 L5.9171108,16.9844006 C2.65441477,16.9844006 0,14.3299858 0,11.0673381 C0,7.87355966 2.54343182,5.26265909 5.71117898,5.15380114 C5.79545455,2.30615625 8.13812216,0.0155994318 11.0057131,0.0155994318 C12.3969602,0.0155994318 13.7122386,0.56259375 14.70925,1.55593466 C15.5334602,2.37705398 16.0520568,3.41550284 16.2079545,4.53518466 C18.0708551,4.65529545 19.5939489,6.0435483 19.921054,7.843375 L20.1084403,7.843375 C22.6366591,7.843375 24.7085824,9.87825568 24.7271278,12.3793807 C24.7362074,13.6070028 24.2651335,14.7627614 23.4006449,15.6337216 C22.5360114,16.5047301 21.3839716,16.9844006 20.1567358,16.9844006 Z M5.9171108,6.59909091 C3.45331818,6.59909091 1.44886364,8.60354545 1.44886364,11.0673381 C1.44886364,13.5311307 3.45331818,15.5355852 5.9171108,15.5355852 L20.1567358,15.5355852 C20.9949517,15.5355852 21.7817812,15.2079489 22.3723381,14.6129972 C22.9627983,14.0181903 23.2845426,13.2287528 23.2783125,12.3901506 C23.2656591,10.6819886 21.8436477,9.29223864 20.1084403,9.29223864 L18.5372443,9.29223864 L18.5372443,8.56780682 C18.5372443,7.13961364 17.3761733,5.97743182 15.9484148,5.97559659 L14.8088352,5.98665625 L14.8088352,5.2551733 C14.8088352,4.25241477 14.4103494,3.30321591 13.6866903,2.58230966 C12.9631278,1.8614517 12.010983,1.46446307 11.0057131,1.46446307 C8.88390057,1.46446307 7.15767614,3.1906875 7.15767614,5.3125483 L7.15767614,6.5991392 L5.9171108,6.5991392 L5.9171108,6.59909091 Z" id="Shape"></path>
                    <g id="Group" transform="translate(6.181818, 7.775568)">
                        <path d="M7.14830682,4.99882102 C6.63202841,4.41019602 5.8893892,4.06976136 5.11081818,4.06469034 C5.10497443,4.06464205 5.09913068,4.06459375 5.09328693,4.06459375 C4.32109091,4.06459375 3.58139773,4.39483807 3.06140057,4.97235511 L1.98465341,4.00296875 C2.77921023,3.12046591 3.9110142,2.61573011 5.09328693,2.61573011 C5.10231818,2.61573011 5.11115625,2.61577841 5.1201875,2.6158267 C6.3123125,2.62355398 7.44851136,3.1439375 8.2375142,4.04348864 L7.14830682,4.99882102 Z" id="Path"></path>
                        <path d="M9.11509091,3.2757358 C8.10547443,2.12466193 6.65216761,1.4588608 5.12781818,1.44905682 C5.11637216,1.44896023 5.10482955,1.44891193 5.09338352,1.44891193 C3.58139773,1.44891193 2.13393466,2.09462216 1.11721875,3.22391477 L0.0404232955,2.25452841 C1.33169886,0.820201705 3.17136932,0 5.09338352,0 C5.10801705,0 5.12250568,4.82954545e-05 5.1371875,0.000144886364 C7.07509091,0.0127017045 8.92200568,0.858355114 10.2043466,2.32025852 L9.11509091,3.2757358 Z" id="Path"></path>
                        <path d="M5.14984091,6.74957955 C5.13448295,6.7320483 5.11555114,6.72306534 5.0935767,6.72292045 C5.07261648,6.72272727 5.05267045,6.73156534 5.03707102,6.74890341 L3.96017898,5.77961364 C4.24971023,5.45796591 4.6622017,5.27405682 5.09314205,5.27405682 C5.09647443,5.27405682 5.09971023,5.27405682 5.10304261,5.27405682 C5.5377017,5.27695455 5.95183523,5.4665625 6.23928977,5.79439205 L5.14984091,6.74957955 Z" id="Path"></path>
                        <path d="M7.14830682,4.99882102 C6.63202841,4.41019602 5.8893892,4.06976136 5.11081818,4.06469034 C5.10497443,4.06464205 5.09913068,4.06459375 5.09328693,4.06459375 C4.32109091,4.06459375 3.58139773,4.39483807 3.06140057,4.97235511 L1.98465341,4.00296875 C2.77921023,3.12046591 3.9110142,2.61573011 5.09328693,2.61573011 C5.10231818,2.61573011 5.11115625,2.61577841 5.1201875,2.6158267 C6.3123125,2.62355398 7.44851136,3.1439375 8.2375142,4.04348864 L7.14830682,4.99882102 Z" id="Path"></path>
                    </g>
                </g>
            </g>
        </g>
    </g>
</svg>